<svg width="86" height="18" viewBox="0 0 86 18" fill="none" xmlns="http://www.w3.org/2000/svg">
<path d="M8.01089 7.29763L8.00327 7.28609L7.8853 7.47843L4.04921 0.723145H0L6.0624 10.833V17.3921H9.62829V10.8522L15.7668 0.723145H12.003L8.01089 7.29763Z" fill="white"/>
<path d="M24.2915 0C19.7018 0 15.9685 4.03548 15.9685 8.99808C15.9685 13.9607 19.7018 18 24.2915 18C28.8849 18 32.6182 13.9607 32.6182 8.99808C32.6182 4.03548 28.8849 0 24.2915 0ZM24.2915 15.0147C21.6732 15.0147 19.542 12.3219 19.542 9.00962C19.542 5.69737 21.6732 3.00449 24.2915 3.00449C26.9135 3.00449 29.0485 5.69737 29.0485 9.00962C29.0485 12.3257 26.9135 15.0147 24.2915 15.0147Z" fill="white"/>
<path d="M56.7118 17.2229V9.89056H63.6837V17.2229H67.1887V0.553955H63.6837V6.95148H63.4973H56.8945H56.7118V0.553955H53.2068V17.2229H56.7118Z" fill="white"/>
<path d="M73.2512 17.2229L74.8268 13.3259H81.0604L82.4457 17.2229H86.0001L79.7741 0.553955H76.1587L69.6587 17.2267H73.2512V17.2229ZM77.8294 4.30091L80.1661 10.8254H79.8997H75.6678H75.4014L77.8294 4.30091Z" fill="white"/>
<path d="M42.8513 17.85C42.8894 17.85 42.9731 17.8577 43.1253 17.8577C44.4916 17.8577 49.0203 17.4615 49.8842 12.3719V0.604004H46.3792L46.3754 12.4565C45.8654 14.3108 44.347 14.7993 43.4679 14.9301C43.4526 14.9301 43.4336 14.934 43.4184 14.9378C43.3651 14.9455 43.3194 14.9494 43.27 14.9532C43.2433 14.9571 43.2205 14.9609 43.1977 14.9609C43.1596 14.9648 43.1253 14.9686 43.0949 14.9686C43.0721 14.9725 43.053 14.9725 43.0302 14.9725C42.9998 14.9763 42.9731 14.9763 42.9465 14.9763C42.9351 14.9763 42.9198 14.9802 42.9084 14.9802C42.9046 14.9802 42.9008 14.9802 42.897 14.9802C42.878 14.9802 42.8628 14.9763 42.8513 14.9763C42.8399 14.9763 42.8323 14.9763 42.8247 14.9763C42.8057 14.9763 42.7866 14.9763 42.7866 14.9763C42.6953 14.9763 42.6078 14.9648 42.5202 14.9609C42.4365 14.9532 42.349 14.9532 42.2691 14.9494C39.647 14.6878 39.137 12.4719 39.1294 12.4488L39.1256 12.4104V0.604004H35.6206V12.4065C35.6434 12.6104 36.2257 17.85 42.8513 17.85Z" fill="white"/>
</svg>
