<svg width="100" height="100" viewBox="0 0 100 100" fill="none" xmlns="http://www.w3.org/2000/svg">
<g clip-path="url(#clip0_753_644)">
<path d="M2.21092 54.4446L2.21088 54.4442C-0.254511 28.0735 19.1972 4.63919 45.5428 2.199L45.5501 2.19833L45.5574 2.1976C47.027 2.05064 48.5391 2 50.0539 2C74.9601 2 95.4754 20.7178 97.7929 45.5541C100.233 71.9007 80.8058 95.336 54.4592 97.8011L54.4466 97.8024C52.9769 97.9494 51.4649 98 49.9501 98C25.0435 98 4.52784 79.2816 2.21092 54.4446Z" stroke="#43B149" stroke-width="4"/>
<path d="M50.0021 96.1089C65.146 96.1089 77.4226 75.4595 77.4226 49.987C77.4226 24.5146 65.146 3.86511 50.0021 3.86511C34.8581 3.86511 22.5815 24.5146 22.5815 49.987C22.5815 75.4595 34.8581 96.1089 50.0021 96.1089Z" stroke="#43B149" stroke-width="4" stroke-linecap="round" stroke-linejoin="round"/>
<path d="M50.0024 3.86511V96.1089" stroke="#43B149" stroke-width="4" stroke-linecap="round" stroke-linejoin="round"/>
<path d="M3.8772 49.9871H96.1264" stroke="#43B149" stroke-width="4" stroke-linecap="round" stroke-linejoin="round"/>
<path d="M16.5635 81.7379C24.9686 75.4085 36.85 71.4656 50.0025 71.4656C63.155 71.4656 75.0364 75.4085 83.4416 81.7379" stroke="#43B149" stroke-width="4" stroke-linecap="round" stroke-linejoin="round"/>
<path d="M83.4416 18.2361C75.0364 24.5655 63.155 28.5085 50.0025 28.5085C36.85 28.5085 24.9686 24.5655 16.5635 18.2361" stroke="#43B149" stroke-width="4" stroke-linecap="round" stroke-linejoin="round"/>
</g>
<defs>
<clipPath id="clip0_753_644">
<rect width="100" height="100" fill="white"/>
</clipPath>
</defs>
</svg>
