<svg width="146" height="32" viewBox="0 0 146 32" fill="none" xmlns="http://www.w3.org/2000/svg">
<path d="M10.6609 12.9555C10.2849 13.8345 9.08931 15.3045 9.08931 15.3045C8.46849 16.107 7.73379 17.1139 7.47466 18.4448C6.92722 22.1283 9.25713 24.0259 10.6857 24.5604C9.55998 23.9747 7.58356 22.2932 8.05693 19.2537C8.2886 18.1239 8.90348 16.9632 10.3003 15.4872C10.3003 15.4872 11.948 13.7998 12.1705 12.3333C12.1705 12.3333 12.9539 9.05474 9.86861 7.04004C11.419 8.93607 11.449 11.1267 10.6609 12.9555Z" fill="#64B72F"/>
<path d="M12.6866 13.5142C12.199 14.661 10.9211 15.8104 10.9211 15.8104C8.90429 17.7219 8.64517 18.8558 8.64517 18.8558C8.1814 20.2271 8.40528 21.728 9.13727 22.8862C9.8096 23.9315 10.8006 24.5363 11.7859 24.7696C11.0366 24.5156 9.5566 23.6503 9.42962 21.752C9.34401 20.6131 9.99387 19.1713 11.8716 17.7195C11.8716 17.7195 12.7768 17.036 13.5534 16.0452C14.0533 15.3656 14.4624 14.5656 14.6153 13.5481C14.6153 13.5481 14.8722 12.2566 14.2686 10.6336C13.9733 9.80908 13.3673 8.83684 12.5954 8.15845C14.0245 10.868 12.6866 13.5142 12.6866 13.5142Z" fill="#BEC7CD"/>
<path d="M19.6712 19.5117V13.1976H17.1245V20.238C17.1169 20.7272 17.0734 21.2731 17.0734 21.2731C16.9849 22.107 16.8097 22.4168 16.8097 22.4168C16.2749 23.6702 15.3086 24.2123 15.3086 24.2123C12.6507 25.9737 9.99323 24.5168 9.99323 24.5168C13.3155 26.452 16.5482 24.6688 16.5482 24.6688C18.8236 23.3737 19.4439 21.6113 19.6114 20.6635C19.6114 20.6635 19.6715 20.254 19.6712 19.5117Z" fill="#004098"/>
<path d="M9.4762 24.1169C9.4762 24.1169 7.98164 23.1918 7.33667 21.2233C7.33667 21.2233 6.81468 19.7081 7.12023 18.1752C7.12023 18.1752 7.32539 17.0181 7.8879 16.0171C7.8879 16.0171 8.29131 15.3095 8.77562 14.6992C8.77562 14.6992 9.21709 14.1058 9.52571 13.5459C9.52571 13.5459 10.8509 11.468 9.22023 9.39062C9.22023 9.39062 9.88348 11.0754 9.01752 12.6446C9.01752 12.6446 8.61026 13.3302 8.16836 13.9803C8.16836 13.9803 7.19624 15.3623 6.91184 16.3003C6.91184 16.3003 6.19813 17.9856 6.69197 20.1295C6.69197 20.1295 7.15198 22.8588 9.4762 24.1169Z" fill="#00A7EA"/>
<path d="M12.1266 23.9859V23.2005H11.9697V23.0935H12.2862V23.9859H12.1266Z" fill="#004098"/>
<path d="M12.9491 23.3663C12.9491 23.3042 12.939 23.2592 12.9174 23.2303C12.8964 23.2018 12.8628 23.1872 12.8168 23.1872C12.7733 23.1872 12.7414 23.2018 12.7215 23.2298C12.7021 23.2578 12.6922 23.3042 12.6922 23.3675C12.6922 23.4335 12.702 23.48 12.7213 23.506C12.7408 23.5324 12.7738 23.5455 12.8201 23.5455C12.8653 23.5455 12.8987 23.5312 12.9193 23.5029C12.9392 23.4749 12.9491 23.4292 12.9491 23.3663ZM12.9203 23.6002C12.8987 23.6162 12.8758 23.627 12.8523 23.6342C12.8282 23.6418 12.803 23.6451 12.7757 23.6451C12.6915 23.6451 12.6302 23.6245 12.5926 23.5822C12.555 23.5401 12.5365 23.4706 12.5365 23.3728C12.5365 23.2727 12.5601 23.1989 12.6059 23.151C12.6522 23.1036 12.7243 23.0793 12.8224 23.0793C12.9173 23.0793 12.9875 23.1049 13.0347 23.1551C13.0811 23.2056 13.1048 23.2817 13.1048 23.383C13.1048 23.464 13.0856 23.5475 13.0467 23.6336C13.0071 23.7196 12.9318 23.8374 12.8183 23.986H12.6327C12.7136 23.8864 12.7746 23.8084 12.8152 23.7529C12.8564 23.6976 12.8915 23.6471 12.9203 23.6002Z" fill="#004098"/>
<path d="M13.2497 23.8491C13.2774 23.8632 13.3048 23.8728 13.3322 23.88C13.3608 23.8869 13.3892 23.8902 13.4184 23.8902C13.4939 23.8902 13.551 23.8718 13.5882 23.8354C13.6263 23.7991 13.6455 23.7449 13.6455 23.6724C13.6455 23.6179 13.6255 23.5764 13.587 23.5494C13.548 23.5221 13.4902 23.5084 13.4139 23.5084C13.3827 23.5084 13.3567 23.5094 13.3343 23.5113C13.3113 23.5132 13.2893 23.5165 13.2685 23.5204L13.3522 23.0936H13.7968V23.2029H13.4865L13.4371 23.4206C13.4536 23.4182 13.4685 23.417 13.4824 23.4156C13.4958 23.4148 13.5081 23.4144 13.5182 23.4144C13.605 23.4144 13.6748 23.4387 13.7276 23.4862C13.7803 23.5338 13.8065 23.5977 13.8065 23.6767C13.8065 23.7782 13.7747 23.8567 13.7101 23.913C13.646 23.9695 13.5566 23.9979 13.441 23.9979C13.3995 23.9979 13.3594 23.9948 13.3206 23.9874C13.2815 23.9803 13.2438 23.9702 13.2065 23.9558L13.2497 23.8491Z" fill="#004098"/>
<path d="M13.9427 23.9859L14.2814 23.5124C14.311 23.4705 14.3338 23.4317 14.3486 23.3972C14.3639 23.362 14.3709 23.3306 14.3709 23.3021C14.3709 23.2629 14.3615 23.2332 14.3427 23.214C14.3236 23.1947 14.2942 23.1853 14.2538 23.1853C14.2099 23.1853 14.1785 23.198 14.1595 23.2229C14.141 23.2483 14.1315 23.2912 14.1315 23.352V23.383H13.9721C13.9707 23.3769 13.9702 23.3716 13.9702 23.3656V23.3381C13.9702 23.2528 13.9945 23.1889 14.0438 23.1458C14.0929 23.1025 14.166 23.0815 14.263 23.0815C14.3511 23.0815 14.4204 23.1009 14.4713 23.1399C14.5211 23.1793 14.5467 23.2332 14.5467 23.3021C14.5467 23.3426 14.5368 23.3842 14.5173 23.4269C14.4978 23.4705 14.4645 23.5214 14.4181 23.5808L14.1886 23.8726H14.5206V23.9859H13.9427Z" fill="#004098"/>
<path d="M14.3407 21.0599V22.1344C14.3407 22.2767 14.3895 22.3808 14.4886 22.4464C14.5864 22.511 14.7407 22.544 14.9545 22.544C15.1663 22.544 15.3224 22.511 15.4215 22.4464C15.5201 22.3808 15.5685 22.2767 15.5685 22.1344V21.0599H15.2574V22.1505C15.2574 22.2209 15.2339 22.2728 15.1837 22.3064C15.1344 22.3396 15.0577 22.3559 14.9551 22.3559C14.8512 22.3559 14.7751 22.3396 14.7258 22.3064C14.6751 22.2728 14.6505 22.2209 14.6505 22.1505V21.0599H14.3407Z" fill="#004098"/>
<path d="M11.1617 22.5474C11.327 22.5474 11.4493 22.5148 11.5288 22.4497C11.6083 22.3844 11.6482 22.2838 11.6482 22.1481V21.0599H11.3337V22.1536C11.3337 22.2247 11.3152 22.2767 11.2787 22.3101C11.2417 22.3428 11.1841 22.3602 11.1045 22.3602C11.0608 22.3602 11.016 22.3525 10.9719 22.3401C10.9276 22.3272 10.8796 22.3068 10.8289 22.279V22.4823C10.8816 22.5048 10.9358 22.5209 10.9912 22.5313C11.0465 22.5422 11.1037 22.5474 11.1617 22.5474Z" fill="#004098"/>
<path d="M12.9361 21.2379V21.0599H12.0045V22.527H12.9361V22.3428H12.3179V21.847H12.8837V21.6725H12.3179V21.2379H12.9361Z" fill="#004098"/>
<path d="M13.8687 22.4497C13.9483 22.3844 13.9875 22.2838 13.9875 22.1481V21.0599H13.6743V22.1536C13.6743 22.2247 13.6552 22.2767 13.6189 22.3101C13.582 22.3428 13.5243 22.3602 13.4446 22.3602C13.4013 22.3602 13.3567 22.3525 13.3114 22.3401C13.267 22.3272 13.2184 22.3068 13.1683 22.279V22.4823C13.2225 22.5048 13.2767 22.5209 13.3308 22.5313C13.3853 22.5422 13.4432 22.5474 13.5022 22.5474C13.6674 22.5474 13.7898 22.5148 13.8687 22.4497Z" fill="#004098"/>
<path d="M13.3746 20.588C13.5388 20.5749 13.646 20.4992 13.646 20.4992L15.2259 20.6071V18.6047L15.0615 18.5951L15.1344 18.7084V20.5225L13.6148 20.4269C13.5452 20.4734 13.4568 20.5076 13.3501 20.5126C13.2438 20.5076 13.1551 20.4734 13.0856 20.4269L11.5667 20.5225V18.7084L11.6393 18.5951L11.4744 18.6047V20.6071L13.0545 20.4992C13.0545 20.4992 13.1611 20.5749 13.3252 20.588C13.3252 20.588 13.3601 20.59 13.3746 20.588Z" fill="#BEC7CD"/>
<path d="M11.8093 18.4811C11.7744 18.5355 11.6535 18.7227 11.6497 18.7279V20.3545C11.6849 20.2969 11.8063 20.098 11.8093 20.0932V18.4811Z" fill="#BEC7CD"/>
<path d="M13.1032 20.3412L13.1076 20.3453C13.1439 20.3829 13.2065 20.4099 13.2875 20.4276C13.267 20.3105 13.2083 20.2234 13.1107 20.1705C13.0058 20.1143 12.8371 20.0858 12.6103 20.0858C12.506 20.0858 12.3942 20.092 12.2671 20.1039C12.144 20.1162 12.0143 20.1341 11.8819 20.1573C11.8766 20.1662 11.736 20.3965 11.7146 20.4314C11.7616 20.4285 13.1032 20.3412 13.1032 20.3412Z" fill="#BEC7CD"/>
<path d="M15.0506 18.7279C15.0473 18.7227 14.9262 18.5355 14.891 18.4811V20.0932C14.8941 20.098 15.0151 20.2969 15.0506 20.3545V18.7279Z" fill="#BEC7CD"/>
<path d="M13.5897 20.1705C13.4918 20.2234 13.4332 20.3105 13.4125 20.4276C13.494 20.4099 13.5567 20.3829 13.5927 20.3453L13.5968 20.3412C13.5968 20.3412 14.939 20.4285 14.9855 20.4314C14.9639 20.3965 14.824 20.1662 14.8184 20.1573C14.686 20.1341 14.5564 20.1162 14.4329 20.1039C14.3066 20.092 14.1942 20.0858 14.0899 20.0858C13.8631 20.0858 13.6948 20.1143 13.5897 20.1705Z" fill="#BEC7CD"/>
<path d="M14.431 18.3097C14.3102 18.2964 14.1914 18.2899 14.0767 18.2899L13.9182 18.2964L13.7976 18.3141C13.7088 18.3328 13.6345 18.3608 13.5777 18.398L13.5606 18.411C13.5606 18.411 13.5534 18.416 13.5531 18.416C13.4894 18.4599 13.4382 18.5135 13.3993 18.576V20.2091C13.4222 20.1794 13.4499 20.152 13.4832 20.1288C13.5862 20.0661 13.7198 20.0247 13.8828 20.0058C13.8828 20.0058 13.8861 20.0053 13.8897 20.0049L13.8973 20.0043C13.9864 19.995 14.0855 19.9921 14.1928 19.9943L14.4117 20.0092C14.5224 20.0199 14.6514 20.036 14.7945 20.0571V18.367C14.67 18.3413 14.5477 18.322 14.431 18.3097ZM14.5905 18.6713C14.5905 18.6713 14.4794 18.9884 14.1274 19.1114C14.1274 19.1114 14.1875 19.1256 14.329 19.2898C14.329 19.2898 14.397 19.3808 14.5128 19.4397C14.5128 19.4397 14.3135 19.8253 14.2942 19.8705C14.2942 19.8705 14.1496 19.764 14.0485 19.4899C14.0485 19.4899 14.0339 19.4542 13.9794 19.4542C13.9794 19.4542 13.8213 19.4717 13.7568 19.4767C13.7568 19.4767 13.7223 19.499 13.6925 19.4763L13.6692 19.4519C13.6692 19.4519 13.6637 19.4535 13.6538 19.4447C13.6538 19.4447 13.6323 19.4299 13.6323 19.4078C13.6323 19.4078 13.6301 19.3875 13.6455 19.3748C13.6455 19.3748 13.9108 19.1964 13.958 19.132C13.958 19.132 13.9553 19.1411 13.9698 19.1045C13.9698 19.1045 13.8916 19.0847 13.8436 19.053C13.8436 19.053 13.7879 19.0155 13.7893 18.9673L13.8024 18.9662C13.8024 18.9662 13.8024 19.0246 13.9168 19.059C13.9168 19.059 13.8892 19.0215 13.8795 18.9765C13.8795 18.9765 13.8887 18.9731 13.8956 18.9731C13.8956 18.9731 13.9277 19.0684 13.9828 19.0703C13.9828 19.0703 14.0907 19.0054 14.0989 18.9315C14.0989 18.9315 14.0543 18.9046 14.0361 18.7938L14.0507 18.7854C14.0507 18.7854 14.0687 18.8902 14.1218 18.8874C14.1218 18.8874 14.17 18.8862 14.1995 18.7988C14.1995 18.7988 14.2242 18.7358 14.2231 18.653C14.2231 18.653 14.2212 18.6236 14.2121 18.5819L14.2231 18.5644C14.2231 18.5644 14.2339 18.5927 14.2377 18.6181C14.2377 18.6181 14.2407 18.5657 14.2799 18.5108L14.2897 18.5163C14.2897 18.5163 14.2652 18.5429 14.2644 18.6343C14.2644 18.6343 14.268 18.7183 14.2287 18.823C14.2287 18.823 14.1532 19.0039 14.0496 19.0858C14.0496 19.0858 14.22 19.0171 14.2687 18.9807C14.2687 18.9807 14.334 18.941 14.342 18.8038H14.3588C14.3588 18.8038 14.3685 18.8316 14.357 18.9154C14.357 18.9154 14.4723 18.863 14.5571 18.6755C14.5571 18.6755 14.574 18.6267 14.5525 18.5779L14.56 18.5688C14.56 18.5688 14.5862 18.6138 14.5838 18.6363C14.5838 18.6363 14.6078 18.581 14.6584 18.5693L14.6626 18.5795C14.6626 18.5795 14.6097 18.6111 14.5905 18.6713Z" fill="#BEC7CD"/>
<path d="M13.1466 18.416L13.1397 18.411C13.1397 18.411 13.1222 18.398 13.1224 18.3981C13.0654 18.3608 12.9916 18.3328 12.903 18.3141L12.7814 18.2964L12.6242 18.2899C12.5091 18.2899 12.3899 18.2964 12.2696 18.3097C12.1524 18.322 12.03 18.3413 11.9058 18.367V20.0571C12.049 20.036 12.1781 20.0199 12.2884 20.0092C12.2884 20.0092 12.5078 19.9943 12.508 19.9943C12.6147 19.9921 12.7138 19.995 12.8017 20.0043L12.8107 20.0049C12.8107 20.0049 12.8137 20.0053 12.819 20.0058C12.9801 20.0247 13.1143 20.0661 13.2172 20.1293C13.2507 20.152 13.2781 20.1794 13.3011 20.2091V18.576C13.2619 18.5135 13.2103 18.4599 13.1466 18.416ZM12.9262 19.7794H12.3108C12.4047 19.5217 12.2157 19.055 12.2157 19.055C12.3444 18.9123 12.5082 18.7023 12.5806 18.6075V19.1735C12.5452 19.1878 12.5196 19.222 12.5196 19.2618C12.5196 19.3145 12.5628 19.3576 12.6164 19.3576C12.6705 19.3576 12.7135 19.3145 12.7135 19.2618C12.7135 19.222 12.6884 19.1878 12.6526 19.1735V18.603C12.7224 18.6945 12.8899 18.9099 13.021 19.055C13.021 19.055 12.832 19.5217 12.9262 19.7794Z" fill="#BEC7CD"/>
<path d="M23.9851 20.8368C23.9401 20.8767 23.8836 20.8964 23.816 20.8964C23.7483 20.8964 23.692 20.8688 23.6469 20.8129L23.1847 20.2412C23.147 20.1857 23.1321 20.1241 23.1397 20.0566C23.147 19.9891 23.1809 19.9355 23.2411 19.8957C23.692 19.5621 24.1035 19.185 24.4754 18.764C24.8475 18.3431 25.1705 17.9044 25.4449 17.4476C25.7192 16.991 25.9466 16.5324 26.1269 16.0716C26.3072 15.6111 26.4312 15.1743 26.4989 14.7613C26.5215 14.6501 26.5252 14.5727 26.5102 14.529C26.495 14.4854 26.4386 14.4634 26.3411 14.4634H23.9738C23.9361 14.4634 23.9062 14.4456 23.8836 14.4098C23.8611 14.3741 23.8499 14.3324 23.8499 14.2848V13.5223C23.8499 13.4032 23.8949 13.3436 23.9851 13.3436H26.9836C27.3066 13.3436 27.5397 13.3992 27.6825 13.5104C27.8251 13.6217 27.8967 13.7805 27.8967 13.9869C27.8967 14.0584 27.8947 14.1399 27.8911 14.2312C27.8871 14.3225 27.8779 14.4038 27.8628 14.4753C27.705 15.3729 27.4193 16.2465 27.0061 17.0962C27.1189 17.3106 27.2522 17.5351 27.4063 17.7692C27.5602 18.0036 27.7219 18.2279 27.8911 18.4423C28.0601 18.6567 28.2253 18.8515 28.387 19.026C28.5485 19.2008 28.6932 19.3358 28.821 19.4311C28.9036 19.4947 28.9431 19.5562 28.9394 19.6157C28.9355 19.6753 28.9074 19.7369 28.8549 19.8004L28.4265 20.3604C28.3212 20.5033 28.1935 20.5074 28.0432 20.3722C27.9305 20.285 27.8027 20.1638 27.6599 20.0088C27.5171 19.8541 27.3686 19.6833 27.2147 19.4966C27.0606 19.3101 26.9104 19.1094 26.7638 18.895C26.6172 18.6806 26.4838 18.4702 26.3636 18.2636C26.048 18.7482 25.6929 19.2048 25.2984 19.6336C24.9039 20.0626 24.466 20.4636 23.9851 20.8368ZM30.4894 23.3029H29.5763C29.471 23.3029 29.4185 23.2472 29.4185 23.1361V17.4059H28.0771C28.0394 17.4059 28.0038 17.3901 27.97 17.3582C27.9361 17.3266 27.9192 17.2908 27.9192 17.251V16.429C27.9192 16.3894 27.9361 16.3557 27.97 16.3278C28.0038 16.3001 28.0394 16.2861 28.0771 16.2861H29.4185V12.7241C29.4185 12.621 29.471 12.5693 29.5763 12.5693H30.4894C30.5945 12.5693 30.6471 12.621 30.6471 12.7241V23.1361C30.6471 23.2472 30.5945 23.3029 30.4894 23.3029ZM32.6425 23.7078H31.6617C31.564 23.7078 31.5152 23.6561 31.5152 23.5529V12.5336C31.5152 12.4304 31.5677 12.3787 31.673 12.3787H32.6425C32.74 12.3787 32.7889 12.4304 32.7889 12.5336V23.5529C32.7889 23.6561 32.74 23.7078 32.6425 23.7078Z" fill="#231815"/>
<path d="M43.9147 19.5382C43.8771 19.5781 43.8395 19.5978 43.8021 19.5978H39.5523V23.4339C39.5523 23.545 39.4996 23.6006 39.3945 23.6006H38.4138C38.3084 23.6006 38.2559 23.545 38.2559 23.4339V19.5978H33.9837C33.9386 19.5978 33.9009 19.5781 33.871 19.5382C33.8408 19.4987 33.8259 19.459 33.8259 19.4191V18.6448C33.8259 18.5972 33.8408 18.5555 33.871 18.5197C33.9009 18.484 33.9386 18.4661 33.9837 18.4661H43.8021C43.8395 18.4661 43.8771 18.4861 43.9147 18.5256C43.9523 18.5655 43.9711 18.6052 43.9711 18.6448V19.4191C43.9711 19.459 43.9523 19.4987 43.9147 19.5382ZM35.28 17.4178C35.2124 17.4338 35.1522 17.4258 35.0997 17.394C35.047 17.3624 35.0132 17.3225 34.9982 17.2748L34.739 16.5601C34.7238 16.5124 34.7351 16.4609 34.7728 16.4052C34.8103 16.3498 34.8478 16.314 34.8855 16.298C35.4114 16.1631 35.9263 16.0102 36.4298 15.8393C36.9332 15.6686 37.4029 15.4861 37.8389 15.2913C38.2747 15.0968 38.6674 14.8943 39.0169 14.6838C39.3663 14.4735 39.6575 14.2608 39.8905 14.0464C39.9731 13.975 40.0182 13.9175 40.0257 13.8738C40.0332 13.8301 39.9731 13.8082 39.8454 13.8082H35.7196C35.6219 13.8082 35.5731 13.7566 35.5731 13.6533V12.8433C35.5731 12.748 35.6219 12.7003 35.7196 12.7003H41.0178C41.3108 12.7003 41.5457 12.75 41.7223 12.8492C41.8988 12.9486 41.9872 13.0776 41.9872 13.2364C41.9872 13.3635 41.9514 13.4966 41.8801 13.6355C41.8086 13.7745 41.7429 13.8877 41.6829 13.975C41.3371 14.4515 40.8636 14.8923 40.2624 15.2973C40.4654 15.3768 40.6814 15.4582 40.9107 15.5415C41.1398 15.6249 41.3728 15.7064 41.6096 15.7858C41.8463 15.8652 42.081 15.9367 42.3141 16.0002C42.5469 16.0638 42.765 16.1154 42.9679 16.155C43.0204 16.1711 43.0617 16.2009 43.0919 16.2444C43.1218 16.2881 43.1257 16.3417 43.1032 16.4052L42.8326 17.1199C42.78 17.2471 42.6973 17.2986 42.5846 17.2748C42.3591 17.2272 42.1055 17.1598 41.8237 17.0723C41.5419 16.985 41.2488 16.8838 40.9445 16.7686C40.6401 16.6535 40.3319 16.5285 40.0201 16.3933C39.7082 16.2583 39.4094 16.1234 39.124 15.9882C38.5302 16.298 37.9009 16.5741 37.2358 16.8162C36.5707 17.0585 35.9187 17.2591 35.28 17.4178Z" fill="#231815"/>
<path d="M45.4365 19.0975C45.3387 19.1612 45.2635 19.185 45.211 19.169C45.1584 19.1532 45.1096 19.1174 45.0644 19.0618L44.6023 18.5019C44.527 18.4146 44.4989 18.341 44.5178 18.2815C44.5364 18.222 44.5798 18.1684 44.6474 18.1207C45.0682 17.819 45.4365 17.4993 45.7521 17.1617C46.0677 16.8242 46.3287 16.449 46.5356 16.0359C46.7421 15.623 46.8981 15.1644 47.0034 14.66C47.1085 14.1558 47.1611 13.5859 47.1611 12.9505C47.1611 12.895 47.1798 12.8453 47.2175 12.8016C47.255 12.758 47.2926 12.7361 47.3303 12.7361L48.3222 12.7957C48.4198 12.7957 48.4688 12.8552 48.4688 12.9744C48.4688 13.3159 48.4556 13.6375 48.4294 13.9393C48.4028 14.2412 48.3634 14.531 48.3109 14.8089C48.4011 15.1424 48.5364 15.4622 48.7168 15.7679C48.8971 16.0737 49.0981 16.3536 49.3199 16.6077C49.5414 16.862 49.7725 17.0884 50.0131 17.2868C50.2535 17.4853 50.4826 17.6441 50.7008 17.7633C50.8135 17.8269 50.8284 17.9223 50.7458 18.0492L50.3175 18.6925C50.2798 18.7482 50.2366 18.7839 50.1878 18.7997C50.1389 18.8157 50.0845 18.8038 50.0244 18.764C49.5584 18.5179 49.1299 18.1942 48.7393 17.7931C48.3485 17.3921 48.0252 16.9493 47.7699 16.4648C47.5143 16.9889 47.193 17.4636 46.8061 17.8883C46.4189 18.3133 45.9624 18.7163 45.4365 19.0975ZM53.4231 23.4458C53.3892 23.4696 53.3498 23.4815 53.3047 23.4815H47.3528C47.0146 23.4815 46.7873 23.4179 46.6708 23.2908C46.5542 23.1638 46.496 22.9455 46.496 22.6356V20.0267C46.496 19.9872 46.513 19.9494 46.5468 19.9135C46.5806 19.8778 46.6162 19.8599 46.6539 19.8599H47.6233C47.6684 19.8599 47.7079 19.8778 47.7417 19.9135C47.7755 19.9494 47.7924 19.9872 47.7924 20.0267V22.1472C47.7924 22.2266 47.8074 22.2782 47.8375 22.3021C47.8675 22.326 47.9201 22.3378 47.9953 22.3378H53.3047C53.3422 22.3378 53.3797 22.3536 53.4174 22.3856C53.4549 22.4172 53.4738 22.4529 53.4738 22.4927V23.3386C53.4738 23.3862 53.4568 23.4219 53.4231 23.4458ZM54.6743 17.0605C54.6405 17.0922 54.6047 17.1081 54.5672 17.1081H53.0342V20.2531C53.0342 20.3565 52.9852 20.408 52.8876 20.408H51.8843C51.7866 20.408 51.7378 20.3565 51.7378 20.2531V12.5336C51.7378 12.4304 51.7866 12.3787 51.8843 12.3787H52.8876C52.9852 12.3787 53.0342 12.4304 53.0342 12.5336V15.9645H54.5672C54.6047 15.9645 54.6405 15.9784 54.6743 16.0061C54.7081 16.034 54.7251 16.0678 54.7251 16.1074V16.9532C54.7251 16.993 54.7081 17.0288 54.6743 17.0605Z" fill="#231815"/>
<path d="M61.5504 14.9816C61.5166 15.0174 61.4771 15.0353 61.432 15.0353H55.4576C55.4126 15.0353 55.3711 15.0155 55.3336 14.9757C55.2959 14.936 55.2773 14.8923 55.2773 14.8446V14.1775C55.2773 14.1379 55.2978 14.0962 55.3393 14.0525C55.3805 14.0088 55.4238 13.9869 55.4689 13.9869H61.432C61.4771 13.9869 61.5166 14.0068 61.5504 14.0465C61.5843 14.0863 61.6012 14.1298 61.6012 14.1775V14.8566C61.6012 14.9042 61.5843 14.9459 61.5504 14.9816ZM58.5351 15.4164C58.8732 15.4164 59.1925 15.4662 59.4932 15.5653C59.7937 15.6648 60.053 15.8018 60.271 15.9763C60.4889 16.1512 60.6617 16.3597 60.7895 16.6018C60.9172 16.8441 60.9812 17.1121 60.9812 17.4059C60.9812 17.6998 60.9172 17.9699 60.7895 18.2159C60.6617 18.4622 60.4869 18.6747 60.2653 18.8533C60.0436 19.032 59.7843 19.1711 59.4875 19.2703C59.1906 19.3697 58.8693 19.4192 58.5238 19.4192C58.1856 19.4192 57.8699 19.3697 57.5769 19.2703C57.2838 19.1711 57.0282 19.032 56.8103 18.8533C56.5923 18.6747 56.4195 18.4622 56.2918 18.2159C56.1639 17.9699 56.1001 17.6998 56.1001 17.4059C56.1001 17.1121 56.1639 16.8441 56.2918 16.6018C56.4195 16.3597 56.5923 16.1512 56.8103 15.9763C57.0282 15.8018 57.2855 15.6648 57.5825 15.5653C57.8793 15.4662 58.1969 15.4164 58.5351 15.4164ZM60.0963 13.4806C60.0624 13.5243 60.0155 13.5462 59.9554 13.5462H57.0132C56.9831 13.5462 56.9474 13.5303 56.9062 13.4985C56.8647 13.4668 56.8442 13.4192 56.8442 13.3555V12.6765C56.8442 12.621 56.8647 12.5773 56.9062 12.5454C56.9474 12.5138 56.9831 12.4978 57.0132 12.4978H59.9554C60.0079 12.4978 60.053 12.5177 60.0907 12.5574C60.1282 12.5972 60.147 12.6407 60.147 12.6884V13.3436C60.147 13.3913 60.1301 13.437 60.0963 13.4806ZM63.5682 23.6065C63.5344 23.6424 63.495 23.6603 63.4498 23.6603H62.4917C62.4466 23.6603 62.4071 23.6424 62.3734 23.6065C62.3395 23.5708 62.3226 23.533 62.3226 23.4935V21.4444C62.3226 21.357 62.3057 21.3014 62.2718 21.2777C62.2381 21.2538 62.1834 21.2419 62.1084 21.2419H57.0132C56.9755 21.2419 56.9399 21.228 56.9062 21.2002C56.8723 21.1724 56.8555 21.1387 56.8555 21.0989V20.2769C56.8555 20.2294 56.8723 20.1918 56.9062 20.1638C56.9399 20.1361 56.9755 20.122 57.0132 20.122H62.8637C63.1492 20.122 63.3465 20.1857 63.4555 20.3127C63.5643 20.4397 63.6189 20.6542 63.6189 20.956V23.4935C63.6189 23.533 63.6021 23.5708 63.5682 23.6065ZM58.5351 16.4529C58.1817 16.4529 57.8906 16.5422 57.6614 16.7209C57.4321 16.8996 57.3176 17.128 57.3176 17.4059C57.3176 17.5489 57.3475 17.6799 57.4078 17.799C57.4678 17.9181 57.5524 18.0214 57.6614 18.1088C57.7703 18.1963 57.8999 18.2657 58.0503 18.3173C58.2006 18.369 58.3621 18.3946 58.5351 18.3946C58.8882 18.3946 59.1793 18.2994 59.4086 18.1088C59.6378 17.9181 59.7525 17.684 59.7525 17.4059C59.7525 17.128 59.6398 16.8996 59.4143 16.7209C59.1889 16.5422 58.8957 16.4529 58.5351 16.4529ZM65.2704 16.8341C65.2366 16.8659 65.1971 16.8818 65.152 16.8818H63.6302V19.4788C63.6302 19.5901 63.5813 19.6455 63.4837 19.6455H62.4804C62.3826 19.6455 62.3338 19.5859 62.3338 19.4668V12.5336C62.3338 12.4304 62.3826 12.3787 62.4804 12.3787H63.4837C63.5813 12.3787 63.6302 12.4304 63.6302 12.5336V15.7381H65.152C65.1971 15.7381 65.2366 15.752 65.2704 15.7798C65.3042 15.8077 65.3211 15.8414 65.3211 15.8811V16.7268C65.3211 16.7667 65.3042 16.8024 65.2704 16.8341Z" fill="#231815"/>
<path d="M75.703 18.5078C75.6654 18.5436 75.6278 18.5614 75.5903 18.5614H73.2568V20.0863C73.903 20.4437 74.2263 20.952 74.2263 21.6112C74.2263 22.2622 73.92 22.7667 73.3076 23.124C72.6949 23.4814 71.8175 23.6602 70.6754 23.6602C69.533 23.6602 68.6557 23.4814 68.0433 23.124C67.4307 22.7667 67.1246 22.2622 67.1246 21.6112C67.1246 20.9439 67.4475 20.4318 68.094 20.0744V18.5614H65.7719C65.6665 18.5614 65.614 18.506 65.614 18.3946V17.5965C65.614 17.5489 65.629 17.5071 65.6591 17.4714C65.689 17.4357 65.7267 17.4178 65.7719 17.4178H75.5903C75.6278 17.4178 75.6654 17.4377 75.703 17.4773C75.7406 17.5172 75.7593 17.5568 75.7593 17.5965V18.3946C75.7593 18.4345 75.7406 18.472 75.703 18.5078ZM70.6754 16.6911C70.1343 16.6911 69.6439 16.6396 69.2043 16.5363C68.7647 16.4331 68.387 16.2902 68.0714 16.1073C67.7558 15.9248 67.5135 15.7024 67.3443 15.4403C67.1753 15.1781 67.0907 14.8844 67.0907 14.5587C67.0907 14.2412 67.1771 13.9511 67.35 13.689C67.5227 13.4269 67.7671 13.2026 68.0827 13.016C68.3983 12.8295 68.7759 12.6865 69.2156 12.5871C69.6552 12.4879 70.1417 12.4382 70.6754 12.4382C71.2164 12.4382 71.7049 12.4879 72.1408 12.5871C72.5766 12.6865 72.9506 12.8295 73.2624 13.016C73.5741 13.2026 73.8149 13.4269 73.984 13.689C74.153 13.9511 74.2376 14.2412 74.2376 14.5587C74.2376 14.8844 74.153 15.1781 73.984 15.4403C73.8149 15.7024 73.5741 15.9248 73.2624 16.1073C72.9506 16.2902 72.5766 16.4331 72.1408 16.5363C71.7049 16.6396 71.2164 16.6911 70.6754 16.6911ZM72.9411 21.623C72.9411 21.3372 72.7514 21.097 72.3718 20.9024C71.9923 20.7078 71.4268 20.6104 70.6754 20.6104C69.9239 20.6104 69.3583 20.7078 68.9788 20.9024C68.5993 21.097 68.4096 21.3372 68.4096 21.623C68.4096 21.9009 68.5993 22.1393 68.9788 22.3378C69.3583 22.5363 69.9239 22.6356 70.6754 22.6356C71.4268 22.6356 71.9923 22.5363 72.3718 22.3378C72.7514 22.1393 72.9411 21.9009 72.9411 21.623ZM70.6754 13.5223C70.3446 13.5223 70.0422 13.5481 69.7679 13.5997C69.4935 13.6514 69.2588 13.7248 69.0634 13.8201C68.868 13.9154 68.7157 14.0267 68.6069 14.1537C68.4979 14.2808 68.4435 14.4158 68.4435 14.5587C68.4435 14.7016 68.4979 14.8368 68.6069 14.9637C68.7157 15.0909 68.868 15.202 69.0634 15.2973C69.2588 15.3926 69.4935 15.4682 69.7679 15.5237C70.0422 15.5793 70.3446 15.607 70.6754 15.607C70.9984 15.607 71.2972 15.5793 71.5716 15.5237C71.8457 15.4682 72.0789 15.3926 72.2704 15.2973C72.4621 15.202 72.6123 15.0909 72.7213 14.9637C72.8302 14.8368 72.8848 14.7016 72.8848 14.5587C72.8848 14.4158 72.8302 14.2808 72.7213 14.1537C72.6123 14.0267 72.4621 13.9154 72.2704 13.8201C72.0789 13.7248 71.8457 13.6514 71.5716 13.5997C71.2972 13.5481 70.9984 13.5223 70.6754 13.5223ZM70.6754 19.5741C70.9158 19.5741 71.145 19.582 71.363 19.5978C71.5809 19.6138 71.7875 19.6377 71.983 19.6693V18.5614H69.379V19.6693C69.5668 19.6377 69.7697 19.6138 69.9878 19.5978C70.2056 19.582 70.4347 19.5741 70.6754 19.5741Z" fill="#231815"/>
<path d="M82.72 14.803C82.6863 14.8387 82.6468 14.8566 82.6016 14.8566H76.6611C76.616 14.8566 76.5746 14.8368 76.5371 14.797C76.4994 14.7573 76.4807 14.7136 76.4807 14.6659V14.0465C76.4807 13.9988 76.5013 13.9553 76.5427 13.9154C76.5838 13.8757 76.6272 13.8559 76.6723 13.8559H82.6016C82.6468 13.8559 82.6863 13.8738 82.72 13.9095C82.7538 13.9452 82.7708 13.991 82.7708 14.0465V14.6779C82.7708 14.7255 82.7538 14.7672 82.72 14.803ZM79.7272 15.214C80.0653 15.214 80.3828 15.2577 80.6798 15.345C80.9766 15.4324 81.2358 15.5575 81.4576 15.7203C81.6792 15.8831 81.852 16.0777 81.976 16.3039C82.1 16.5303 82.1621 16.7864 82.1621 17.0723C82.1621 17.3504 82.0981 17.6045 81.9704 17.8347C81.8425 18.0652 81.6697 18.2636 81.452 18.4304C81.2339 18.5972 80.9766 18.7263 80.6798 18.8176C80.3828 18.909 80.0615 18.9546 79.7159 18.9546C79.3778 18.9546 79.0621 18.909 78.7691 18.8176C78.476 18.7263 78.2204 18.5972 78.0025 18.4304C77.7844 18.2636 77.6135 18.0652 77.4897 17.8347C77.3657 17.6045 77.3036 17.3504 77.3036 17.0723C77.3036 16.7864 77.3657 16.5303 77.4897 16.3039C77.6135 16.0777 77.7863 15.8831 78.0081 15.7203C78.2297 15.5575 78.4872 15.4324 78.7803 15.345C79.0734 15.2577 79.389 15.214 79.7272 15.214ZM81.2659 13.3734C81.2321 13.4171 81.1851 13.4389 81.1249 13.4389H78.2054C78.1753 13.4389 78.1395 13.421 78.0983 13.3853C78.0569 13.3496 78.0362 13.3039 78.0362 13.2483V12.617C78.0362 12.5615 78.0569 12.5177 78.0983 12.4859C78.1395 12.4542 78.1753 12.4383 78.2054 12.4383H81.1249C81.1776 12.4383 81.2225 12.4582 81.2603 12.4978C81.2977 12.5376 81.3166 12.5812 81.3166 12.6288V13.2364C81.3166 13.2841 81.2996 13.3299 81.2659 13.3734ZM84.6363 23.3087C84.5125 23.4397 84.2888 23.5054 83.9657 23.5054H79.0509C78.7126 23.5054 78.4833 23.4458 78.3631 23.3266C78.243 23.2075 78.1828 22.9889 78.1828 22.6714V19.6575C78.1828 19.6178 78.1979 19.5841 78.2279 19.5562C78.2579 19.5285 78.2918 19.5145 78.3294 19.5145H79.3215C79.3589 19.5145 79.3946 19.5285 79.4285 19.5562C79.4622 19.5841 79.4792 19.6178 79.4792 19.6575V20.5629H83.526V19.6098C83.526 19.5701 83.541 19.5323 83.5711 19.4966C83.601 19.4609 83.635 19.443 83.6726 19.443H84.6758C84.7134 19.443 84.7472 19.4609 84.7773 19.4966C84.8072 19.5323 84.8224 19.5701 84.8224 19.6098V22.7071C84.8224 22.9771 84.7603 23.1777 84.6363 23.3087ZM79.7272 16.2146C79.3739 16.2146 79.0827 16.2961 78.8536 16.4588C78.6243 16.6217 78.5097 16.8263 78.5097 17.0723C78.5097 17.3186 78.6243 17.5271 78.8536 17.6978C79.0827 17.8687 79.3739 17.9539 79.7272 17.9539C80.0879 17.9539 80.381 17.8687 80.6065 17.6978C80.8319 17.5271 80.9446 17.3186 80.9446 17.0723C80.9446 16.8263 80.8319 16.6217 80.6065 16.4588C80.381 16.2961 80.0879 16.2146 79.7272 16.2146ZM83.526 21.623H79.4792V22.2425C79.4792 22.3775 79.5506 22.445 79.6933 22.445H83.3119C83.4545 22.445 83.526 22.3775 83.526 22.2425V21.623ZM86.4625 16.3337C86.4287 16.3656 86.3892 16.3814 86.3442 16.3814H84.8224V18.7402C84.8224 18.7799 84.8072 18.8176 84.7773 18.8533C84.7472 18.8891 84.7134 18.9069 84.6758 18.9069H83.6726C83.635 18.9069 83.601 18.8891 83.5711 18.8533C83.541 18.8176 83.526 18.7759 83.526 18.7282V12.5336C83.526 12.4304 83.5748 12.3787 83.6726 12.3787H84.6758C84.7734 12.3787 84.8224 12.4304 84.8224 12.5336V15.2497H86.3442C86.3892 15.2497 86.4287 15.2636 86.4625 15.2913C86.4964 15.3193 86.5132 15.353 86.5132 15.3927V16.2266C86.5132 16.2664 86.4964 16.3021 86.4625 16.3337Z" fill="#231815"/>
<path d="M87.8545 20.8129C87.7944 20.8528 87.7305 20.8688 87.663 20.8607C87.5953 20.8528 87.5427 20.8171 87.5051 20.7535L87.0655 20.134C87.0129 20.0626 87.0034 19.9951 87.0374 19.9314C87.0711 19.868 87.1143 19.8203 87.167 19.7885C87.6404 19.4788 88.0914 19.1214 88.5197 18.7163C88.948 18.3113 89.333 17.8865 89.6751 17.4416C90.0171 16.997 90.3081 16.5422 90.5488 16.0777C90.7891 15.613 90.9619 15.1663 91.0672 14.7375C91.0973 14.6025 91.1011 14.5151 91.0786 14.4753C91.056 14.4357 90.9808 14.4158 90.8531 14.4158H87.9448C87.8997 14.4158 87.864 14.3979 87.8377 14.3622C87.8113 14.3264 87.7982 14.2848 87.7982 14.2371V13.4389C87.7982 13.3278 87.8507 13.2722 87.956 13.2722H91.6309C91.9241 13.2722 92.1532 13.3317 92.3185 13.4509C92.4837 13.57 92.5665 13.7249 92.5665 13.9154C92.5665 14.0187 92.559 14.1239 92.5439 14.2312C92.5289 14.3383 92.5102 14.4357 92.4876 14.523C92.3823 14.9441 92.2413 15.3669 92.0649 15.7917C91.8882 16.2167 91.6722 16.6435 91.4167 17.0723C91.5594 17.279 91.7248 17.4952 91.9127 17.7216C92.1005 17.9479 92.2959 18.1684 92.4988 18.3828C92.7019 18.5972 92.9009 18.7979 93.0963 18.9844C93.2916 19.1711 93.4683 19.3238 93.6261 19.443C93.6787 19.4828 93.7144 19.5344 93.7333 19.5979C93.7518 19.6615 93.7389 19.725 93.6938 19.7885L93.2091 20.3722C93.1113 20.4835 92.9873 20.4914 92.8371 20.3961C92.7019 20.3008 92.542 20.1679 92.358 19.997C92.1738 19.8263 91.984 19.6377 91.7887 19.4311C91.5931 19.2247 91.4016 19.0063 91.2138 18.7759C91.0259 18.5456 90.8568 18.3273 90.7065 18.1207C90.3233 18.621 89.895 19.0995 89.4215 19.5562C88.948 20.013 88.4256 20.4318 87.8545 20.8129ZM95.892 23.5292C95.892 23.6323 95.8393 23.684 95.734 23.684H94.7421C94.7044 23.684 94.6688 23.6701 94.6351 23.6424C94.6012 23.6144 94.5844 23.5768 94.5844 23.5292V12.5336C94.5844 12.4939 94.6012 12.4582 94.6351 12.4263C94.6688 12.3947 94.7044 12.3787 94.7421 12.3787H95.734C95.8393 12.3787 95.892 12.4304 95.892 12.5336V23.5292Z" fill="#231815"/>
<path d="M106.026 13.5699C106.026 14.3404 105.988 15.059 105.913 15.7262C105.838 16.3933 105.733 17.0327 105.597 17.6441H107.378C107.416 17.6441 107.453 17.664 107.491 17.7037C107.529 17.7436 107.547 17.7832 107.547 17.8228V18.6091C107.547 18.6489 107.529 18.6886 107.491 18.7282C107.453 18.7681 107.416 18.7877 107.378 18.7877H103.027V23.4339C103.027 23.545 102.975 23.6006 102.869 23.6006H101.889C101.783 23.6006 101.731 23.545 101.731 23.4339V18.7877H97.56C97.5149 18.7877 97.4773 18.7681 97.4472 18.7282C97.4171 18.6886 97.4022 18.6489 97.4022 18.6091V17.8228C97.4022 17.7751 97.4171 17.7335 97.4472 17.6978C97.4773 17.6621 97.5149 17.6441 97.56 17.6441H104.357C104.462 17.1598 104.553 16.6058 104.628 15.9823C104.703 15.3589 104.741 14.7375 104.741 14.118C104.741 14.0068 104.714 13.9374 104.662 13.9095C104.609 13.8817 104.53 13.8677 104.425 13.8677H98.9916C98.9538 13.8677 98.9164 13.854 98.8788 13.8261C98.8412 13.7984 98.8225 13.7646 98.8225 13.7249V12.8671C98.8225 12.8194 98.8412 12.7837 98.8788 12.7598C98.9164 12.736 98.9538 12.7241 98.9916 12.7241H105.282C105.522 12.7241 105.706 12.7917 105.834 12.9267C105.962 13.0618 106.026 13.2762 106.026 13.5699Z" fill="#231815"/>
<path d="M109.069 21.0513C108.926 21.1703 108.795 21.1666 108.675 21.0393L108.145 20.5151C108.039 20.404 108.051 20.2811 108.179 20.1459C108.667 19.6774 109.084 19.1571 109.43 18.5853C109.775 18.0134 110.054 17.402 110.264 16.7507C110.354 16.4648 110.431 16.181 110.495 15.899C110.559 15.6171 110.61 15.3312 110.647 15.0412C110.685 14.7514 110.711 14.4496 110.726 14.1358C110.741 13.8222 110.745 13.4907 110.738 13.1411C110.738 13.0935 110.754 13.0517 110.788 13.016C110.822 12.9803 110.858 12.9624 110.895 12.9624L111.899 12.9981C111.936 12.9981 111.97 13.016 112 13.0517C112.03 13.0874 112.045 13.1292 112.045 13.1768C112.045 13.6613 112.03 14.112 112 14.529C111.97 14.9459 111.921 15.349 111.853 15.7381C111.929 16.1115 112.045 16.4847 112.203 16.8579C112.361 17.2313 112.545 17.5905 112.755 17.936C112.966 18.2815 113.193 18.5993 113.437 18.8891C113.681 19.1791 113.924 19.4271 114.164 19.6336C114.284 19.7289 114.292 19.8522 114.187 20.003L113.713 20.6105C113.676 20.6661 113.625 20.698 113.561 20.7058C113.497 20.7138 113.428 20.69 113.353 20.6343C113.172 20.4835 112.981 20.2969 112.778 20.0745C112.575 19.8522 112.381 19.6119 112.197 19.3536C112.013 19.0957 111.842 18.8295 111.684 18.5555C111.527 18.2815 111.399 18.0176 111.301 17.7633C111.166 18.0968 111.012 18.4226 110.839 18.7402C110.666 19.0579 110.482 19.3578 110.287 19.6396C110.091 19.9216 109.89 20.1837 109.684 20.4258C109.477 20.6682 109.272 20.8767 109.069 21.0513ZM118.251 17.8228C118.217 17.8547 118.181 17.8705 118.144 17.8705H116.611V23.5292C116.611 23.6323 116.562 23.684 116.464 23.684H115.461C115.363 23.684 115.314 23.6323 115.314 23.5292V12.5336C115.314 12.4304 115.363 12.3787 115.461 12.3787H116.464C116.562 12.3787 116.611 12.4304 116.611 12.5336V16.7268H118.144C118.181 16.7268 118.217 16.7408 118.251 16.7686C118.285 16.7965 118.301 16.8301 118.301 16.8698V17.7037C118.301 17.7514 118.285 17.7912 118.251 17.8228Z" fill="#231815"/>
<path d="M127.533 18.3946H126.53C126.432 18.3946 126.384 18.3392 126.384 18.2279V16.0121H124.614C124.546 16.298 124.437 16.566 124.287 16.8162C124.136 17.0664 123.949 17.2829 123.723 17.4655C123.498 17.6482 123.239 17.7931 122.945 17.9003C122.652 18.0075 122.333 18.0611 121.987 18.0611C121.581 18.0611 121.213 17.9878 120.883 17.8407C120.552 17.6938 120.27 17.4973 120.037 17.251C119.804 17.005 119.624 16.7209 119.496 16.3992C119.368 16.0777 119.304 15.7422 119.304 15.3927C119.304 15.0353 119.368 14.6938 119.496 14.3681C119.624 14.0426 119.804 13.7566 120.037 13.5104C120.27 13.2643 120.552 13.0678 120.883 12.9207C121.213 12.7738 121.581 12.7003 121.987 12.7003C122.348 12.7003 122.677 12.758 122.974 12.873C123.27 12.9883 123.533 13.1432 123.763 13.3377C123.992 13.5324 124.18 13.7626 124.326 14.0286C124.473 14.2948 124.576 14.5747 124.636 14.8685H126.384V12.5336C126.384 12.4304 126.432 12.3787 126.53 12.3787H127.533C127.631 12.3787 127.68 12.4304 127.68 12.5336V18.2279C127.68 18.3392 127.631 18.3946 127.533 18.3946ZM123.441 15.3927C123.441 15.1862 123.407 14.9876 123.34 14.797C123.272 14.6063 123.175 14.4396 123.047 14.2967C122.919 14.1537 122.765 14.0386 122.585 13.9511C122.404 13.8639 122.205 13.8201 121.987 13.8201C121.769 13.8201 121.572 13.8639 121.395 13.9511C121.219 14.0386 121.067 14.1537 120.939 14.2967C120.811 14.4396 120.713 14.6063 120.646 14.797C120.578 14.9876 120.544 15.1862 120.544 15.3927C120.544 15.5993 120.578 15.7958 120.646 15.9823C120.713 16.169 120.811 16.3337 120.939 16.4767C121.067 16.6197 121.219 16.7329 121.395 16.8162C121.572 16.8996 121.769 16.9413 121.987 16.9413C122.205 16.9413 122.404 16.8996 122.585 16.8162C122.765 16.7329 122.919 16.6197 123.047 16.4767C123.175 16.3337 123.272 16.169 123.34 15.9823C123.407 15.7958 123.441 15.5993 123.441 15.3927ZM127.5 23.3087C127.379 23.4397 127.157 23.5054 126.834 23.5054H121.852C121.521 23.5054 121.296 23.4458 121.176 23.3266C121.055 23.2075 120.995 22.9889 120.995 22.6714V19.1452C120.995 19.1056 121.01 19.0718 121.04 19.0439C121.07 19.0162 121.104 19.0023 121.142 19.0023H122.134C122.171 19.0023 122.207 19.0162 122.241 19.0439C122.275 19.0718 122.292 19.1056 122.292 19.1452V20.2412H126.384V19.0975C126.384 19.0579 126.399 19.0222 126.429 18.9903C126.459 18.9586 126.492 18.9427 126.53 18.9427H127.533C127.571 18.9427 127.605 18.9586 127.635 18.9903C127.665 19.0222 127.68 19.0579 127.68 19.0975V22.7071C127.68 22.9771 127.62 23.1777 127.5 23.3087ZM126.384 21.3491H122.292V22.1829C122.292 22.3179 122.359 22.3856 122.494 22.3856H126.181C126.316 22.3856 126.384 22.3179 126.384 22.1829V21.3491Z" fill="#231815"/>
<path d="M135.892 18.1266C135.85 18.1545 135.811 18.1763 135.774 18.1921C135.495 18.2797 135.153 18.353 134.748 18.4126C134.342 18.4721 133.912 18.5218 133.457 18.5615C133.002 18.6012 132.549 18.629 132.099 18.6449C131.648 18.6608 131.238 18.6608 130.87 18.6449C130.622 18.629 130.425 18.5615 130.278 18.4423C130.132 18.3232 130.058 18.1247 130.058 17.8467V13.8201C130.058 13.5422 130.113 13.3477 130.222 13.2364C130.331 13.1253 130.528 13.0696 130.814 13.0696H134.781C134.887 13.0696 134.939 13.1214 134.939 13.2245V14.0584C134.939 14.1617 134.887 14.2132 134.781 14.2132H131.558C131.422 14.2132 131.355 14.2808 131.355 14.4158V17.1676C131.355 17.2948 131.375 17.3782 131.417 17.4178C131.458 17.4576 131.55 17.4815 131.693 17.4893C131.933 17.5053 132.213 17.5072 132.533 17.4952C132.852 17.4834 133.186 17.4636 133.536 17.4357C133.885 17.408 134.237 17.3702 134.59 17.3225C134.943 17.2749 135.274 17.2194 135.582 17.1558C135.709 17.1319 135.785 17.1756 135.807 17.2868L135.931 17.9539C135.946 18.0414 135.933 18.0989 135.892 18.1266ZM138.18 23.4458C138.146 23.4696 138.111 23.4815 138.073 23.4815H132.11C131.772 23.4815 131.544 23.4179 131.428 23.2908C131.311 23.1638 131.253 22.9455 131.253 22.6356V20.0983C131.253 20.0586 131.27 20.019 131.304 19.9791C131.338 19.9395 131.373 19.9195 131.411 19.9195H132.38C132.426 19.9195 132.465 19.9374 132.499 19.9731C132.533 20.0088 132.549 20.0506 132.549 20.0983V22.1472C132.549 22.2266 132.565 22.2782 132.595 22.3021C132.624 22.326 132.677 22.3378 132.753 22.3378H138.073C138.111 22.3378 138.146 22.3536 138.18 22.3856C138.214 22.4172 138.231 22.4529 138.231 22.4927V23.3386C138.231 23.3862 138.214 23.4219 138.18 23.4458ZM139.431 17.126C139.398 17.1539 139.362 17.1676 139.324 17.1676H137.791V20.2531C137.791 20.3565 137.742 20.408 137.645 20.408H136.642C136.544 20.408 136.495 20.3565 136.495 20.2531V12.5336C136.495 12.4304 136.544 12.3787 136.642 12.3787H137.645C137.742 12.3787 137.791 12.4304 137.791 12.5336V16.024H139.324C139.362 16.024 139.398 16.038 139.431 16.0657C139.465 16.0936 139.482 16.1273 139.482 16.167V17.0247C139.482 17.0645 139.465 17.0982 139.431 17.126Z" fill="#231815"/>
</svg>
