<svg width="103" height="32" viewBox="0 0 103 32" fill="none" xmlns="http://www.w3.org/2000/svg">
<path d="M19.9324 18.3325C19.9324 18.6836 19.8302 19.0104 19.6627 19.3037L19.9307 19.4453L19.9324 18.3325Z" fill="#108241"/>
<path d="M24.6021 12.0545L24.6043 7.15076L19.9307 9.59865L24.6021 12.0545Z" fill="#084A95"/>
<path d="M22.5155 7.15076C21.225 7.15076 19.9307 8.01729 19.9307 9.19063V9.59865L24.6043 7.15076H22.5155Z" fill="#1D2A73"/>
<path d="M19.9307 14.5265L24.6 16.969L24.6021 12.0546L19.9307 14.5265Z" fill="#1E95D4"/>
<path d="M24.6011 12.0546L19.9307 9.59875V14.5266L24.6011 12.0546Z" fill="#1074B9"/>
<path d="M23.7236 21.4086C24.2801 20.4989 24.5989 19.4536 24.5989 18.3413L24.6 16.969L19.9307 19.4453L23.7236 21.4086Z" fill="#16957F"/>
<path d="M19.9307 14.5254V19.4452L24.6 16.969L19.9307 14.5254Z" fill="#1696AE"/>
<path d="M15.2182 21.903C15.22 19.6725 15.2208 18.5063 15.2208 18.4044C15.2208 17.9794 15.0802 17.7033 14.8421 17.3656L10.6614 19.4007L15.2182 21.903Z" fill="#47A638"/>
<path d="M14.8421 17.3656C14.4231 16.7687 13.6998 16.3657 12.877 16.3657L10.5506 16.3641L10.5517 18.5041C10.5527 18.8627 10.5977 19.0583 10.6614 19.4008L14.8421 17.3656Z" fill="#89B929"/>
<path d="M19.9287 24.2925L19.9307 19.4453L19.2545 19.7992C18.9516 20.0826 18.5643 20.2865 18.1293 20.3857L15.2182 21.9031L19.9287 24.2925Z" fill="#005D3B"/>
<path d="M15.2204 18.3982L15.2182 21.903L18.1288 20.3861C17.948 20.4284 17.7623 20.4561 17.5697 20.4561C16.3113 20.4561 15.299 19.5234 15.2204 18.3982Z" fill="#169243"/>
<path d="M19.6627 19.3037C19.5562 19.4855 19.4113 19.6535 19.2545 19.7996L19.9307 19.4453L19.6627 19.3037Z" fill="#16957F"/>
<path d="M19.9307 19.4453L19.9286 24.2925C20.9227 23.9438 21.4818 23.6499 22.0645 23.2142C22.7338 22.7146 23.2961 22.102 23.7236 21.4087L19.9307 19.4453Z" fill="#108241"/>
<path d="M12.9432 23.0921C13.6034 23.6181 14.3729 24.0325 15.2166 24.3024L15.2182 21.9031L12.9432 23.0921Z" fill="#0F8F9A"/>
<path d="M10.6614 19.4008C10.9609 20.8214 11.7929 22.1791 12.9433 23.0929L15.2182 21.903L10.6614 19.4008Z" fill="#108D5D"/>
<path d="M15.2182 21.9031L15.2167 24.3024C16.0523 24.5085 16.8319 24.6428 17.6478 24.6428C18.4466 24.6428 19.2128 24.5164 19.9287 24.2925L15.2182 21.9031Z" fill="#08717B"/>
<path d="M15.0181 10.8071C14.8993 11.3148 15.0647 11.9276 15.5028 12.4114C15.8415 12.7857 16.2765 13.0096 16.7002 13.0655L16.727 13.068C16.919 13.0953 17.1036 13.1866 17.2412 13.3405C17.5547 13.686 17.5231 14.2143 17.1716 14.5222C16.8206 14.829 16.2818 14.7979 15.9693 14.4524C15.8319 14.3004 15.7608 14.1124 15.7554 13.9232L15.7564 13.8907C15.749 13.4705 15.574 13.0195 15.2353 12.6454C14.7966 12.16 14.1947 11.9276 13.6661 11.9866L13.6388 11.9892C13.1439 12.041 12.6324 11.865 12.2761 11.4714C11.6897 10.8232 11.7485 9.8316 12.4077 9.25535C13.0662 8.67975 14.0753 8.73818 14.6612 9.38576C15.0192 9.78154 15.1369 10.3049 15.0235 10.7845L15.0181 10.8071Z" fill="url(#paint0_linear_691_1214)"/>
<path d="M17.4119 16.4486C17.8564 16.4147 18.3118 16.5672 18.6493 16.9039C19.2539 17.5098 19.2454 18.4827 18.6296 19.0772C18.0142 19.6722 17.0235 19.6633 16.4188 19.0579C16.078 18.7171 15.9325 18.261 15.979 17.8199L15.9849 17.7749C16.0523 17.2698 15.8297 16.6618 15.3492 16.182C14.8871 15.719 14.2984 15.4889 13.7945 15.5243L13.7747 15.526C13.39 15.5426 12.9951 15.4096 12.7031 15.1182C12.4312 14.8458 12.2969 14.4915 12.3007 14.138L12.3018 14.1234C12.2969 13.5165 12.0038 12.8343 11.4505 12.281C10.7935 11.6233 9.94392 11.3227 9.25102 11.4338L9.22801 11.4385C8.51528 11.5681 7.75345 11.3582 7.20723 10.8118C6.3345 9.93796 6.34628 8.53408 7.23499 7.67549C8.12368 6.81734 9.55165 6.82982 10.4243 7.70407C10.9706 8.2496 11.1707 9.00225 11.0273 9.69946L11.0219 9.72397C10.8967 10.4031 11.1878 11.2434 11.8449 11.9009C12.3975 12.4544 13.0861 12.7539 13.7041 12.77L13.7372 12.7696C14.0909 12.7773 14.4408 12.9151 14.7078 13.183C15.002 13.4767 15.1294 13.8626 15.1021 14.2442L15.1016 14.2622C15.0566 14.756 15.2809 15.3391 15.7436 15.8021C16.2224 16.2817 16.8372 16.5118 17.352 16.4544L17.4119 16.4486Z" fill="url(#paint1_linear_691_1214)"/>
<path d="M28.778 21.811H29.2349V23.1019C29.2349 23.6833 28.9583 23.8857 28.5137 23.8857C28.4082 23.8857 28.2702 23.8677 28.1804 23.8371L28.2311 23.465C28.2943 23.4865 28.3756 23.5015 28.4655 23.5015C28.6581 23.5015 28.778 23.4135 28.778 23.0954V21.811Z" fill="#231815"/>
<path d="M30.7913 22.9897H30.046V23.474H30.8785V23.853H29.587V21.811H30.8362V22.19H30.046V22.6137H30.7913V22.9897Z" fill="#231815"/>
<path d="M31.6244 21.811H32.0807V23.1019C32.0807 23.6833 31.8047 23.8857 31.3595 23.8857C31.2546 23.8857 31.1161 23.8677 31.0256 23.8371L31.0775 23.465C31.1402 23.4865 31.2214 23.5015 31.3113 23.5015C31.5035 23.5015 31.6244 23.4135 31.6244 23.0954V21.811Z" fill="#231815"/>
<path d="M32.8891 21.811V22.9865C32.8891 23.3378 33.0213 23.5162 33.2556 23.5162C33.4964 23.5162 33.6285 23.3473 33.6285 22.9865V21.811H34.085V22.9558C34.085 23.5862 33.7698 23.8857 33.2406 23.8857C32.7302 23.8857 32.429 23.6012 32.429 22.95V21.811H32.8891Z" fill="#231815"/>
<path d="M35.4888 21.811V23.853H35.0287V21.811H35.4888Z" fill="#231815"/>
<path d="M35.8553 23.853V21.811H36.3899L36.8109 22.5592C36.9308 22.7747 37.0517 23.0288 37.1416 23.259H37.1502C37.1202 22.9897 37.1111 22.7141 37.1111 22.4077V21.811H37.5322V23.853H37.0517L36.6177 23.0647C36.4979 22.8471 36.3658 22.5841 36.2662 22.3445L36.2583 22.3471C36.27 22.617 36.2754 22.9047 36.2754 23.2375V23.853H35.8553Z" fill="#231815"/>
<path d="M37.8987 21.8388C38.0672 21.8111 38.2865 21.796 38.5171 21.796C38.9024 21.796 39.1517 21.8659 39.3469 22.0141C39.5573 22.1712 39.6894 22.4234 39.6894 22.7835C39.6894 23.1746 39.5487 23.4438 39.3534 23.6103C39.1399 23.7893 38.8151 23.8737 38.4187 23.8737C38.1811 23.8737 38.0131 23.8591 37.8987 23.8436V21.8388ZM38.3588 23.5044C38.3979 23.5132 38.461 23.5132 38.5171 23.5132C38.9318 23.5162 39.203 23.2867 39.203 22.7985C39.2057 22.3749 38.9591 22.151 38.5658 22.151C38.4636 22.151 38.3979 22.1591 38.3588 22.1686V23.5044Z" fill="#231815"/>
<path d="M40.4165 21.811V22.9865C40.4165 23.3378 40.5486 23.5162 40.783 23.5162C41.0238 23.5162 41.1559 23.3473 41.1559 22.9865V21.811H41.6129V22.9558C41.6129 23.5862 41.2971 23.8857 40.768 23.8857C40.2576 23.8857 39.9575 23.6012 39.9575 22.95V21.811H40.4165Z" fill="#231815"/>
<path d="M41.9948 23.3774C42.1179 23.4412 42.3067 23.5044 42.5026 23.5044C42.7129 23.5044 42.8241 23.4165 42.8241 23.2835C42.8241 23.1561 42.7278 23.0837 42.4843 22.996C42.1478 22.877 41.9285 22.6896 41.9285 22.3925C41.9285 22.0449 42.2174 21.7782 42.6941 21.7782C42.9231 21.7782 43.0917 21.8263 43.2121 21.8811L43.1093 22.2537C43.028 22.2142 42.8841 22.1566 42.6855 22.1566C42.4877 22.1566 42.3913 22.2475 42.3913 22.3534C42.3913 22.4834 42.5058 22.5414 42.7669 22.6411C43.1243 22.7747 43.2928 22.9621 43.2928 23.2502C43.2928 23.5925 43.0312 23.8828 42.4759 23.8828C42.2436 23.8828 42.0157 23.8222 41.9018 23.759L41.9948 23.3774Z" fill="#231815"/>
<path d="M43.9626 22.1989H43.4191V21.811H44.976V22.1989H44.4227V23.853H43.9626V22.1989Z" fill="#231815"/>
<path d="M45.189 21.8388C45.3361 21.8143 45.556 21.796 45.7988 21.796C46.0996 21.796 46.3098 21.842 46.4543 21.9563C46.5741 22.0534 46.6405 22.1963 46.6405 22.3837C46.6405 22.6441 46.4569 22.8231 46.2831 22.8862V22.8957C46.4238 22.9526 46.5024 23.0899 46.5527 23.2773C46.6164 23.5074 46.6795 23.774 46.7186 23.8531H46.2499C46.2167 23.7951 46.1691 23.6286 46.1086 23.3774C46.0541 23.1228 45.9674 23.0529 45.7812 23.0497H45.6432V23.8531H45.189V21.8388ZM45.6432 22.7167H45.8229C46.0515 22.7167 46.1863 22.6017 46.1863 22.4234C46.1863 22.2354 46.0605 22.1415 45.8503 22.1385C45.7389 22.1385 45.6758 22.1473 45.6432 22.1535V22.7167Z" fill="#231815"/>
<path d="M47.3526 23.853V23.0173L46.7122 21.811H47.236L47.443 22.3018C47.5057 22.4504 47.5474 22.5592 47.5993 22.6926H47.6052C47.6501 22.5652 47.6977 22.4474 47.7587 22.3018L47.9626 21.811H48.4767L47.81 23.0016V23.853H47.3526Z" fill="#231815"/>
<path d="M49.1584 22.9048V23.2105H48.3713V22.9048H49.1584Z" fill="#231815"/>
<path d="M49.8742 21.811V22.9865C49.8742 23.3378 50.0069 23.5162 50.2407 23.5162C50.481 23.5162 50.6132 23.3473 50.6132 22.9865V21.811H51.0701V22.9558C51.0701 23.5862 50.7543 23.8857 50.2257 23.8857C49.7148 23.8857 49.4141 23.6012 49.4141 22.95V21.811H49.8742Z" fill="#231815"/>
<path d="M51.4371 23.853V21.811H51.9715L52.3921 22.5592C52.5124 22.7747 52.6328 23.0288 52.7228 23.259H52.7318C52.7013 22.9897 52.6928 22.7141 52.6928 22.4077V21.811H53.1133V23.853H52.6328L52.1995 23.0647C52.0802 22.8471 51.9475 22.5841 51.848 22.3445L51.8394 22.3471C51.8517 22.617 51.8576 22.9047 51.8576 23.2375V23.853H51.4371Z" fill="#231815"/>
<path d="M53.94 21.811V23.853H53.4803V21.811H53.94Z" fill="#231815"/>
<path d="M54.7848 23.853L54.1353 21.811H54.6371L54.8838 22.6743C54.9523 22.9171 55.0159 23.1498 55.064 23.4046H55.0732C55.1239 23.1593 55.1872 22.9171 55.2561 22.6838L55.5145 21.811H56.0014L55.3188 23.853H54.7848Z" fill="#231815"/>
<path d="M57.3925 22.9897H56.6472V23.474H57.4803V23.853H56.1882V21.811H57.438V22.19H56.6472V22.6137H57.3925V22.9897Z" fill="#231815"/>
<path d="M57.7628 21.8388C57.9093 21.8143 58.1292 21.796 58.3727 21.796C58.6728 21.796 58.8832 21.842 59.0276 21.9563C59.148 22.0534 59.2138 22.1963 59.2138 22.3837C59.2138 22.6441 59.0308 22.8231 58.8564 22.8862V22.8957C58.9977 22.9526 59.0758 23.0899 59.1271 23.2773C59.1897 23.5074 59.2528 23.774 59.2919 23.8531H58.8232C58.79 23.7951 58.7419 23.6286 58.682 23.3774C58.6273 23.1228 58.5407 23.0529 58.3546 23.0497H58.2165V23.8531H57.7628V21.8388ZM58.2165 22.7167H58.3957C58.6252 22.7167 58.76 22.6017 58.76 22.4234C58.76 22.2354 58.6338 22.1415 58.4235 22.1385C58.3123 22.1385 58.249 22.1473 58.2165 22.1535V22.7167Z" fill="#231815"/>
<path d="M59.5295 23.3774C59.653 23.4412 59.8419 23.5044 60.0372 23.5044C60.2475 23.5044 60.3593 23.4165 60.3593 23.2835C60.3593 23.1561 60.263 23.0837 60.0195 22.996C59.6824 22.877 59.4636 22.6896 59.4636 22.3925C59.4636 22.0449 59.752 21.7782 60.2298 21.7782C60.4577 21.7782 60.6267 21.8263 60.7467 21.8811L60.6445 22.2537C60.5631 22.2142 60.4187 22.1566 60.2213 22.1566C60.0221 22.1566 59.9265 22.2475 59.9265 22.3534C59.9265 22.4834 60.0404 22.5414 60.302 22.6411C60.6594 22.7747 60.8279 22.9621 60.8279 23.2502C60.8279 23.5925 60.5668 23.8828 60.0109 23.8828C59.7788 23.8828 59.5508 23.8222 59.4359 23.759L59.5295 23.3774Z" fill="#231815"/>
<path d="M61.5669 21.811V23.853H61.1068V21.811H61.5669Z" fill="#231815"/>
<path d="M62.3238 22.1989H61.7808V21.811H63.3368V22.1989H62.784V23.853H62.3238V22.1989Z" fill="#231815"/>
<path d="M64.0398 23.853V23.0173L63.3998 21.811H63.923L64.1302 22.3018C64.1938 22.4504 64.2356 22.5592 64.2863 22.6926H64.2928C64.3378 22.5652 64.3859 22.4474 64.4453 22.3018L64.6502 21.811H65.1638L64.4971 23.0016V23.853H64.0398Z" fill="#231815"/>
<path d="M67.4174 23.7951C67.3339 23.8372 67.1445 23.8828 66.8978 23.8828C66.1976 23.8828 65.8369 23.4438 65.8369 22.8624C65.8369 22.1656 66.3302 21.7782 66.9433 21.7782C67.1799 21.7782 67.3601 21.8263 67.441 21.8687L67.3483 22.2354C67.2553 22.1963 67.1264 22.1592 66.9642 22.1592C66.6004 22.1592 66.3179 22.3804 66.3179 22.8347C66.3179 23.2438 66.5581 23.5016 66.9669 23.5016C67.1054 23.5016 67.2585 23.4715 67.3483 23.435L67.4174 23.7951Z" fill="#231815"/>
<path d="M69.4521 22.8106C69.4521 23.4803 69.0497 23.8858 68.4575 23.8858C67.8556 23.8858 67.5051 23.4285 67.5051 22.8471C67.5051 22.2354 67.8924 21.7782 68.4901 21.7782C69.1128 21.7782 69.4521 22.2475 69.4521 22.8106ZM67.9882 22.8377C67.9882 23.2375 68.1749 23.5194 68.4815 23.5194C68.7907 23.5194 68.9685 23.2229 68.9685 22.8259C68.9685 22.4595 68.794 22.1445 68.4783 22.1445C68.1691 22.1445 67.9882 22.441 67.9882 22.8377Z" fill="#231815"/>
<path d="M69.7228 23.853V21.811H70.2574L70.6784 22.5592C70.7982 22.7747 70.9191 23.0288 71.0091 23.259H71.0181C70.987 22.9897 70.9786 22.7141 70.9786 22.4077V21.811H71.3996V23.853H70.9191L70.4858 23.0647C70.3659 22.8471 70.2332 22.5841 70.1343 22.3445L70.1252 22.3471C70.1374 22.617 70.1434 22.9047 70.1434 23.2375V23.853H69.7228Z" fill="#231815"/>
<path d="M72.2434 23.853L71.5944 21.811H72.0963L72.3429 22.6743C72.4124 22.9171 72.4751 23.1498 72.5238 23.4046H72.5328C72.5831 23.1593 72.6473 22.9171 72.7158 22.6838L72.9737 21.811H73.4606L72.7789 23.853H72.2434Z" fill="#231815"/>
<path d="M74.8522 22.9897H74.1069V23.474H74.9394V23.853H73.6473V21.811H74.8977V22.19H74.1069V22.6137H74.8522V22.9897Z" fill="#231815"/>
<path d="M75.2219 21.8388C75.369 21.8143 75.5889 21.796 75.8318 21.796C76.1325 21.796 76.3422 21.842 76.4866 21.9563C76.6075 22.0534 76.674 22.1963 76.674 22.3837C76.674 22.6441 76.4899 22.8231 76.316 22.8862V22.8957C76.4572 22.9526 76.5349 23.0899 76.5862 23.2773C76.6488 23.5074 76.7125 23.774 76.752 23.8531H76.2828C76.2496 23.7951 76.2015 23.6286 76.1411 23.3774C76.0875 23.1228 75.9998 23.0529 75.8135 23.0497H75.6756V23.8531H75.2219V21.8388ZM75.6756 22.7167H75.8564C76.0843 22.7167 76.2197 22.6017 76.2197 22.4234C76.2197 22.2354 76.0939 22.1415 75.8826 22.1385C75.7714 22.1385 75.7093 22.1473 75.6756 22.1535V22.7167Z" fill="#231815"/>
<path d="M78.6541 23.7591C78.5128 23.8072 78.2453 23.8738 77.9773 23.8738C77.6076 23.8738 77.3406 23.7799 77.155 23.5979C76.9677 23.4224 76.866 23.1561 76.8681 22.8562C76.8719 22.1777 77.362 21.7903 78.026 21.7903C78.2876 21.7903 78.4888 21.8421 78.5878 21.8896L78.4915 22.2595C78.3801 22.2116 78.2427 22.1712 78.0196 22.1712C77.6381 22.1712 77.3497 22.39 77.3497 22.8321C77.3497 23.2528 77.6108 23.5017 77.987 23.5017C78.0918 23.5017 78.1763 23.4898 78.2122 23.4716V23.0436H77.8998V22.6839H78.6541V23.7591Z" fill="#231815"/>
<path d="M80.1865 22.9897H79.4417V23.474H80.2731V23.853H78.981V21.811H80.2314V22.19H79.4417V22.6137H80.1865V22.9897Z" fill="#231815"/>
<path d="M80.5568 23.853V21.811H81.0912L81.5117 22.5592C81.6316 22.7747 81.7519 23.0288 81.8419 23.259H81.8515C81.821 22.9897 81.8124 22.7141 81.8124 22.4077V21.811H82.233V23.853H81.7519L81.3191 23.0647C81.1993 22.8471 81.0672 22.5841 80.9676 22.3445L80.9579 22.3471C80.9708 22.617 80.9762 22.9047 80.9762 23.2375V23.853H80.5568Z" fill="#231815"/>
<path d="M84.0868 23.7951C84.0034 23.8372 83.8134 23.8828 83.5673 23.8828C82.8669 23.8828 82.5058 23.4438 82.5058 22.8624C82.5058 22.1656 82.999 21.7782 83.6117 21.7782C83.8497 21.7782 84.0301 21.8263 84.1109 21.8687L84.0178 22.2354C83.9247 22.1963 83.7958 22.1592 83.6337 22.1592C83.2698 22.1592 82.9868 22.3804 82.9868 22.8347C82.9868 23.2438 83.2281 23.5016 83.6363 23.5016C83.7749 23.5016 83.9279 23.4715 84.0178 23.435L84.0868 23.7951Z" fill="#231815"/>
<path d="M85.563 22.9897H84.8177V23.474H85.6502V23.853H84.3575V21.811H85.6079V22.19H84.8177V22.6137H85.563V22.9897Z" fill="#231815"/>
<path d="M87.9968 23.7951C87.9124 23.8372 87.7235 23.8828 87.4768 23.8828C86.777 23.8828 86.4163 23.4438 86.4163 22.8624C86.4163 22.1656 86.9091 21.7782 87.5217 21.7782C87.7593 21.7782 87.9396 21.8263 88.021 21.8687L87.9279 22.2354C87.8342 22.1963 87.7052 22.1592 87.5426 22.1592C87.1798 22.1592 86.8968 22.3804 86.8968 22.8347C86.8968 23.2438 87.1376 23.5016 87.5459 23.5016C87.6838 23.5016 87.8379 23.4715 87.9279 23.435L87.9968 23.7951Z" fill="#231815"/>
<path d="M89.472 22.9897H88.7272V23.474H89.5592V23.853H88.2671V21.811H89.518V22.19H88.7272V22.6137H89.472V22.9897Z" fill="#231815"/>
<path d="M89.8422 23.853V21.811H90.3767L90.7977 22.5592C90.9175 22.7747 91.0384 23.0288 91.1279 23.259H91.1369C91.1075 22.9897 91.0985 22.7141 91.0985 22.4077V21.811H91.5195V23.853H91.0384L90.6056 23.0647C90.4853 22.8471 90.3526 22.5841 90.2536 22.3445L90.245 22.3471C90.2573 22.617 90.2627 22.9047 90.2627 23.2375V23.853H89.8422Z" fill="#231815"/>
<path d="M92.276 22.1989H91.7319V21.811H93.2893V22.1989H92.7357V23.853H92.276V22.1989Z" fill="#231815"/>
<path d="M94.7072 22.9897H93.9619V23.474H94.7945V23.853H93.5024V21.811H94.7516V22.19H93.9619V22.6137H94.7072V22.9897Z" fill="#231815"/>
<path d="M95.0775 21.8388C95.224 21.8143 95.4439 21.796 95.6874 21.796C95.9875 21.796 96.1977 21.842 96.3422 21.9563C96.4621 22.0534 96.5284 22.1963 96.5284 22.3837C96.5284 22.6441 96.3444 22.8231 96.1705 22.8862V22.8957C96.3117 22.9526 96.3904 23.0899 96.4412 23.2773C96.5043 23.5074 96.5675 23.774 96.6065 23.8531H96.1378C96.1047 23.7951 96.056 23.6286 95.9966 23.3774C95.942 23.1228 95.8548 23.0529 95.6691 23.0497H95.5306V23.8531H95.0775V21.8388ZM95.5306 22.7167H95.7114C95.9394 22.7167 96.0747 22.6017 96.0747 22.4234C96.0747 22.2354 95.948 22.1415 95.7376 22.1385C95.627 22.1385 95.5637 22.1473 95.5306 22.1535V22.7167Z" fill="#231815"/>
<path d="M31.2531 14.9327L31.3253 15.0313C31.6869 15.5244 32.0551 15.9045 32.4188 16.1602C32.7619 16.4019 33.0759 16.5704 33.3536 16.6612L34.0448 16.0061C33.8094 15.9148 33.5756 15.8022 33.3477 15.6705C33.0748 15.5115 32.8282 15.3104 32.6157 15.073C32.4017 14.833 32.2279 14.5475 32.0973 14.2243C31.9668 13.9007 31.9005 13.5144 31.9005 13.0765V11.3553H33.4402L33.4376 10.5837H28.9508V11.3553H30.6142V13.0765C30.6142 13.5129 30.5457 13.9014 30.4114 14.2301C30.2771 14.5573 30.1006 14.8407 29.8865 15.0736C29.664 15.3121 29.4169 15.513 29.1498 15.6705C28.9278 15.8005 28.703 15.9129 28.4799 16.0036L29.1723 16.6602C29.4285 16.5689 29.7314 16.4008 30.0728 16.1602C30.436 15.9039 30.8089 15.524 31.1792 15.0302L31.2531 14.9327Z" fill="#231815"/>
<path d="M34.6114 19.5053C34.6831 19.5162 34.8741 19.5308 35.0116 19.5308C35.5697 19.5308 35.8527 19.3147 35.8527 18.8884V10.2195H34.6114V12.8485H33.0855V13.6198H34.6114V19.5053Z" fill="#231815"/>
<path d="M36.384 19.5053C36.4557 19.5162 36.5766 19.5308 36.7136 19.5308C36.9474 19.5308 37.1845 19.4885 37.3235 19.4092C37.5065 19.3029 37.5959 19.1336 37.5959 18.8884V10.2178L36.384 10.2195V19.5053Z" fill="#231815"/>
<path d="M50.4537 13.6933L50.527 13.7915C50.8871 14.275 51.2734 14.6424 51.6736 14.8841C52.0545 15.1131 52.3905 15.2749 52.6699 15.3658L53.3621 14.7096C53.1236 14.6157 52.8838 14.4963 52.6469 14.3506C52.3627 14.1772 52.1037 13.9617 51.8759 13.7097C51.6468 13.4555 51.4591 13.1532 51.3172 12.8109C51.1744 12.4665 51.1027 12.063 51.1027 11.6114L51.1038 10.4193H49.8165V11.6114C49.8165 12.0645 49.7421 12.4695 49.5955 12.8167C49.45 13.1616 49.2601 13.466 49.031 13.72C48.7935 13.9748 48.533 14.1888 48.2537 14.3568C48.021 14.4978 47.7898 14.6157 47.5662 14.7081L48.2591 15.3647C48.518 15.2739 48.8444 15.1121 49.2285 14.8841C49.6309 14.6434 50.0188 14.276 50.3809 13.7915L50.4537 13.6933Z" fill="#231815"/>
<path d="M49.8278 16.5238V18.4661C49.8278 18.7932 49.9177 19.0469 50.0953 19.2196C50.2761 19.396 50.5099 19.4818 50.8117 19.4818H55.9405C56.0342 19.4818 56.1218 19.4478 56.2064 19.3784C56.2856 19.3127 56.3247 19.213 56.3247 19.0735V18.7102H51.5163C51.3986 18.7102 51.3018 18.6732 51.2268 18.6006C51.1519 18.5265 51.1139 18.4085 51.1139 18.2405V16.5238H49.8278Z" fill="#231815"/>
<path d="M54.8094 17.2546C54.8864 17.2655 55.0176 17.2802 55.1662 17.2802C55.7644 17.2802 56.0673 17.0647 56.0673 16.6377V13.2367H57.7564V12.4658H56.0673V10.2147H54.8094V17.2546Z" fill="#231815"/>
<path d="M65.0259 15.7814C65.1023 15.7917 65.2335 15.8067 65.3832 15.8067C65.9803 15.8067 66.2837 15.5908 66.2837 15.1643V12.9001H67.9733V12.1292H66.2837V10.2316H65.0259V15.7814Z" fill="#231815"/>
<path d="M58.1736 11.8845H59.3064L59.1945 12.0265C59.0479 12.2106 58.9339 12.4205 58.8564 12.6481C58.7788 12.8767 58.7392 13.112 58.7392 13.347C58.7392 13.6502 58.797 13.9357 58.9115 14.1976C59.026 14.4602 59.1886 14.6957 59.3946 14.8966C59.6001 15.0975 59.8526 15.2571 60.1442 15.3727C60.4358 15.4879 60.7606 15.5463 61.1094 15.5463C61.4513 15.5463 61.7723 15.4879 62.0633 15.3727C62.3549 15.2571 62.6074 15.0975 62.8129 14.8966C63.02 14.6946 63.1848 14.4591 63.303 14.1961C63.4207 13.9336 63.4806 13.6476 63.4806 13.347C63.4806 13.1105 63.4394 12.8756 63.3581 12.6496C63.2768 12.4214 63.1639 12.2113 63.0237 12.0243L62.9189 11.8845H64.1153V11.1135H61.7595V10.1499H60.5305V11.1135H58.1736V11.8845ZM61.1094 14.7421C60.768 14.7421 60.4764 14.6063 60.2438 14.3397C60.0147 14.0771 59.8997 13.74 59.8997 13.3358C59.8997 12.9403 60.0147 12.6042 60.2432 12.338C60.4764 12.0667 60.768 11.9298 61.1094 11.9298C61.4438 11.9298 61.7327 12.0667 61.9697 12.338C62.202 12.6057 62.3197 12.9414 62.3197 13.3358C62.3197 13.7385 62.202 14.076 61.9697 14.3397C61.7327 14.6063 61.4438 14.7421 61.1094 14.7421Z" fill="#231815"/>
<path d="M65.0242 19.5043C65.1013 19.5163 65.2318 19.5309 65.3811 19.5309C65.632 19.5309 65.8423 19.4886 65.9915 19.4078C66.1868 19.3023 66.2821 19.1317 66.2821 18.8885V16.097H59.9109V16.868H65.0242V19.5043Z" fill="#231815"/>
<path d="M86.0006 12.1292V10.2316H84.7433V15.5601C84.8204 15.5708 84.9515 15.5861 85.0997 15.5861C85.6978 15.5861 86.0006 15.3699 86.0006 14.9434V12.9001H87.6897V12.1292H86.0006Z" fill="#231815"/>
<path d="M81.5973 15.0504C81.8883 14.9473 82.1404 14.7995 82.3469 14.6121C82.5534 14.4247 82.7166 14.2034 82.8338 13.9529C82.9515 13.7039 83.0108 13.4241 83.0108 13.1218C83.0108 12.8851 82.9724 12.6638 82.8953 12.4648C82.8193 12.2643 82.7123 12.0791 82.5796 11.9141L82.4662 11.7721H83.647V11.0014H81.2912V10.1499H80.0607V11.0014H77.7039V11.7721H78.8222L78.7001 11.9152C78.561 12.0798 78.4535 12.2639 78.3807 12.4633C78.3074 12.6638 78.27 12.8851 78.27 13.1218C78.27 13.4237 78.3283 13.7039 78.4417 13.9544C78.5551 14.2045 78.7172 14.4262 78.9238 14.6117C79.1297 14.7995 79.3823 14.9473 79.6727 15.0504C79.966 15.1555 80.2919 15.2086 80.6406 15.2086C80.982 15.2086 81.3041 15.1555 81.5973 15.0504ZM79.753 14.0421C79.5385 13.8042 79.4294 13.4905 79.4294 13.1105C79.4294 12.7456 79.5385 12.436 79.752 12.1909C79.9698 11.9429 80.2683 11.8166 80.6406 11.8166C81.0061 11.8166 81.3015 11.9429 81.5235 12.1902C81.7418 12.4351 81.8514 12.7445 81.8514 13.1105C81.8514 13.4836 81.7418 13.7948 81.523 14.0358C81.3015 14.2802 81.0061 14.4039 80.6406 14.4039C80.2683 14.4039 79.9709 14.2823 79.753 14.0421Z" fill="#231815"/>
<path d="M84.7396 16.7583H81.2903V15.8763H80.0361V18.4663C80.0361 18.7933 80.126 19.047 80.3041 19.2198C80.485 19.3962 80.7188 19.4819 81.0206 19.4819H84.632C85.0937 19.4819 85.4276 19.3508 85.6545 19.0803C85.8824 18.8096 85.9969 18.477 85.9969 18.0928V15.8763H84.7396V16.7583ZM84.7407 18.0928C84.7407 18.2469 84.7021 18.3597 84.625 18.4291C84.5464 18.4996 84.4405 18.535 84.3105 18.535H81.5117C81.4438 18.535 81.3914 18.5161 81.3502 18.477C81.3122 18.439 81.2913 18.355 81.2913 18.2407V17.6936H84.7407V18.0928Z" fill="#231815"/>
<path d="M90.222 16.2118H91.5093V14.6339H94.5489L94.5478 13.9079H92.4585L92.6024 13.7597C92.7816 13.5749 92.9287 13.362 93.0384 13.1265C93.1583 12.8693 93.2198 12.5863 93.2198 12.2868C93.2198 11.9933 93.154 11.7095 93.0229 11.4428C92.8918 11.1725 92.7174 10.9313 92.5066 10.7261C92.2921 10.5288 92.0385 10.366 91.7544 10.2435C91.1653 9.98975 90.4992 10.0106 89.953 10.2435C89.6645 10.366 89.4136 10.5288 89.2039 10.7267C88.9883 10.9319 88.8192 11.1713 88.7004 11.4396C88.5832 11.7075 88.5239 11.9918 88.5239 12.2868C88.5239 12.5874 88.5832 12.8697 88.6998 13.1271C88.8075 13.362 88.954 13.5749 89.138 13.7586L89.2868 13.9079H87.6593V14.6339H90.222V16.2118ZM90.0669 13.3431C89.8427 13.0676 89.7287 12.7126 89.7287 12.2868C89.7287 11.8468 89.847 11.4845 90.0782 11.2095C90.3141 10.9287 90.5826 10.7862 90.8769 10.7862C91.1926 10.7862 91.4655 10.9293 91.687 11.2116C91.9041 11.4862 92.0144 11.8478 92.0144 12.2868C92.0144 12.7064 91.8972 13.0603 91.665 13.339C91.4296 13.6224 91.161 13.7665 90.8657 13.7665C90.565 13.7665 90.2959 13.6241 90.0669 13.3431Z" fill="#231815"/>
<path d="M91.9106 18.7102C91.7934 18.7102 91.6961 18.6733 91.6222 18.6002C91.5457 18.5272 91.5093 18.4096 91.5093 18.2405V16.9978H90.222V18.4649C90.222 18.7927 90.3125 19.0465 90.4906 19.2197C90.671 19.3961 90.9058 19.4818 91.2065 19.4818H95.9228C96.018 19.4818 96.1041 19.4483 96.1887 19.3784C96.2684 19.3121 96.307 19.213 96.307 19.0736V18.7102H91.9106Z" fill="#231815"/>
<path d="M92.3033 16.0995H95.0374V17.2546C95.1149 17.2655 95.246 17.2802 95.3942 17.2802C95.9924 17.2802 96.2947 17.0647 96.2947 16.6377V10.2147H95.0374V15.3851H92.3033V16.0995Z" fill="#231815"/>
<path d="M42.8258 12.8803L42.8986 12.98C43.0998 13.2554 43.3486 13.4905 43.6369 13.6787C43.9312 13.8693 44.2373 14.0302 44.5465 14.1548C44.8493 14.2812 45.1447 14.382 45.4249 14.4561C45.6808 14.5233 45.8974 14.5755 46.0692 14.6116L46.6625 13.8652C46.4153 13.8109 46.1355 13.7326 45.8284 13.6319C45.4586 13.5107 45.0965 13.3405 44.7519 13.1272C44.4127 12.9117 44.1158 12.6433 43.868 12.329C43.6149 12.006 43.4822 11.6098 43.4742 11.15L43.4732 11.0602H46.3271V10.2893H39.2898V11.0602H42.1913L42.1881 11.1515C42.1714 11.612 42.0367 12.0075 41.7879 12.3281C41.5438 12.6439 41.2438 12.9084 40.897 13.1158C40.5636 13.3281 40.2031 13.4987 39.8265 13.6203C39.5209 13.7206 39.2459 13.8016 39.0078 13.8609L39.6038 14.611C39.7327 14.5824 39.9169 14.5353 40.1743 14.467C40.453 14.3918 40.7547 14.2868 41.0688 14.1553C41.3743 14.0244 41.6872 13.8594 41.997 13.6662C42.2972 13.4785 42.5518 13.2466 42.7525 12.9789L42.8258 12.8803Z" fill="#231815"/>
<path d="M42.204 19.5042C42.2811 19.5162 42.4122 19.5309 42.5621 19.5309C42.8119 19.5309 43.0227 19.4885 43.1715 19.4077C43.3673 19.3022 43.4625 19.1316 43.4625 18.8884V16.2818H47.4121V15.5115H38.225V16.2818H42.204V19.5042Z" fill="#231815"/>
<path d="M72.6383 13.9788C74.2712 13.9788 75.5964 13.0494 75.5964 11.9027C75.5964 10.7564 74.2712 9.8269 72.6383 9.8269C71.0054 9.8269 69.6806 10.7564 69.6806 11.9027C69.6806 13.0494 71.0054 13.9788 72.6383 13.9788ZM72.6383 10.5368C73.589 10.5368 74.36 11.1479 74.36 11.9027C74.36 12.6573 73.589 13.2692 72.6383 13.2692C71.6875 13.2692 70.9171 12.6573 70.9171 11.9027C70.9171 11.1479 71.6875 10.5368 72.6383 10.5368Z" fill="#231815"/>
<path d="M77.682 14.992V14.1617H67.5945V14.992H70.1915V16.3512C69.8689 16.6831 69.6806 17.0851 69.6806 17.5172C69.6806 18.6635 71.0054 19.5929 72.6383 19.5929C74.2712 19.5929 75.5964 18.6635 75.5964 17.5172C75.5964 17.0845 75.407 16.6831 75.0849 16.3507V14.992H77.682ZM72.6383 18.8837C71.6875 18.8837 70.917 18.2714 70.917 17.5172C70.917 16.762 71.6875 16.1503 72.6383 16.1503C73.589 16.1503 74.36 16.762 74.36 17.5172C74.36 18.2714 73.589 18.8837 72.6383 18.8837ZM73.8222 15.6153C73.4595 15.5042 73.0598 15.4414 72.6383 15.4414C72.2172 15.4414 71.8175 15.5042 71.4548 15.6163V14.992H73.8222V15.6153Z" fill="#231815"/>
<defs>
<linearGradient id="paint0_linear_691_1214" x1="12.2017" y1="9.04363" x2="17.5129" y2="15.1445" gradientUnits="userSpaceOnUse">
<stop stop-color="#F2C81F"/>
<stop offset="0.311438" stop-color="#F4E829"/>
<stop offset="0.640409" stop-color="#96C03F"/>
<stop offset="1" stop-color="#076E3D"/>
</linearGradient>
<linearGradient id="paint1_linear_691_1214" x1="7.01983" y1="7.34413" x2="17.7269" y2="19.333" gradientUnits="userSpaceOnUse">
<stop stop-color="#F2C81F"/>
<stop offset="0.241546" stop-color="#F4E829"/>
<stop offset="0.613527" stop-color="#96C03F"/>
<stop offset="1" stop-color="#076E3D"/>
</linearGradient>
</defs>
</svg>
