<svg width="92" height="20" viewBox="0 0 92 20" fill="none" xmlns="http://www.w3.org/2000/svg">
<path d="M60.4463 16.877C59.7888 16.877 59.2565 16.3427 59.2565 15.6827C59.2565 12.7573 56.8845 10.3763 53.9702 10.3763C51.056 10.3763 48.6839 12.7573 48.6839 15.6827C48.6839 16.3427 48.1517 16.877 47.4942 16.877C46.8366 16.877 46.3044 16.3427 46.3044 15.6827C46.3044 11.4398 49.7434 7.98767 53.9702 7.98767C58.197 7.98767 61.6361 11.4398 61.6361 15.6827C61.6361 16.3427 61.1037 16.877 60.4463 16.877Z" fill="#15BF70"/>
<path d="M78.7438 16.877C78.4358 16.877 78.1277 16.7602 77.892 16.5276L71.3372 10.027C70.8669 9.56063 70.8669 8.80384 71.3372 8.33747C71.8075 7.87107 72.5694 7.87107 73.0409 8.33747L78.7438 13.9932L84.4467 8.33747C84.9169 7.87107 85.6788 7.87107 86.1503 8.33747C86.6206 8.80384 86.6206 9.56063 86.1503 10.027L79.5957 16.5276C79.3599 16.7602 79.0519 16.877 78.7438 16.877Z" fill="#2E6FF2"/>
<path d="M66.4037 16.877C65.7321 16.877 65.1885 16.3428 65.1885 15.6829V8.99251C65.1885 8.33265 65.7321 7.79846 66.4037 7.79846C67.0754 7.79846 67.619 8.33265 67.619 8.99251V15.6829C67.619 16.3428 67.0754 16.877 66.4037 16.877Z" fill="#FFC533"/>
<path d="M66.4984 6.02753C67.3829 6.02753 68.1 5.30006 68.1 4.40268C68.1 3.5053 67.3829 2.77783 66.4984 2.77783C65.6138 2.77783 64.8967 3.5053 64.8967 4.40268C64.8967 5.30006 65.6138 6.02753 66.4984 6.02753Z" fill="#FFC533"/>
<path d="M88.1585 16.8598C89.0431 16.8598 89.7601 16.1323 89.7601 15.235C89.7601 14.3376 89.0431 13.6101 88.1585 13.6101C87.274 13.6101 86.5569 14.3376 86.5569 15.235C86.5569 16.1323 87.274 16.8598 88.1585 16.8598Z" fill="#FFC533"/>
<path d="M38.794 17.256C38.1563 17.256 37.5184 17.1302 36.9094 16.8788C35.669 16.3669 34.6984 15.3929 34.1764 14.1366C33.6546 12.8804 33.6445 11.4945 34.1488 10.2306C34.6505 8.96795 35.6072 7.9799 36.8402 7.44866C38.073 6.91743 39.4357 6.90717 40.6774 7.42043C41.9178 7.93243 42.8884 8.90636 43.4104 10.1626C43.6549 10.7503 43.3839 11.4278 42.8077 11.6755L36.9322 14.2046C37.1716 14.4291 37.4515 14.6102 37.7617 14.7385C38.4411 15.0195 39.1874 15.013 39.8618 14.723C40.4858 14.4548 40.9887 13.9634 41.2761 13.3398C41.5421 12.7623 42.2179 12.5147 42.7851 12.7854C43.3524 13.0562 43.5957 13.744 43.3297 14.3214C42.8041 15.4608 41.885 16.3591 40.7454 16.8506C40.1177 17.1213 39.4559 17.256 38.794 17.256ZM37.7238 9.57618C37.0495 9.86747 36.525 10.4077 36.249 11.0993C36.1228 11.415 36.056 11.7461 36.0471 12.0771L40.6534 10.0946C40.414 9.87003 40.1328 9.69424 39.824 9.56079C39.4483 9.39911 38.6377 9.18096 37.7238 9.57618Z" fill="#2E6FF2"/>
<path d="M30.1412 7.97046C29.4762 7.97046 28.9379 8.50474 28.9379 9.16475C28.9379 12.0902 26.5388 14.4711 23.5913 14.4711C20.6437 14.4711 18.2446 12.0902 18.2446 9.16475C18.2446 8.50474 17.7063 7.97046 17.0412 7.97046C16.3763 7.97046 15.8379 8.50474 15.8379 9.16475C15.8379 12.0902 13.4389 14.4711 10.4913 14.4711C7.5438 14.4711 5.14471 12.0902 5.14471 9.16475C5.14471 8.50474 4.60638 7.97046 3.94137 7.97046C3.27637 7.97046 2.73804 8.50474 2.73804 9.16475C2.73804 13.4077 6.21631 16.8598 10.4913 16.8598C13.2451 16.8598 15.6657 15.4267 17.0412 13.2744C18.417 15.4267 20.8388 16.8598 23.5913 16.8598C27.8663 16.8598 31.3446 13.4077 31.3446 9.16475C31.3446 8.50474 30.8062 7.97046 30.1412 7.97046Z" fill="#FFC533"/>
</svg>
