<svg width="141" height="32" viewBox="0 0 141 32" fill="none" xmlns="http://www.w3.org/2000/svg">
<path d="M73.4812 16.1172V10.8833H68.8156V12.2323H71.8977V16.1172H73.4812Z" fill="#666464"/>
<path d="M54.7972 17.3445C53.288 17.3445 52.0552 18.5312 52.0552 19.9918C52.0552 21.4525 53.2774 22.6392 54.7972 22.6392C56.317 22.6392 57.5392 21.4525 57.5392 19.9918C57.5392 18.5312 56.317 17.3445 54.7972 17.3445ZM54.7972 21.1989C54.1064 21.1989 53.5537 20.6613 53.5537 19.9918C53.5537 19.3224 54.1064 18.7848 54.7972 18.7848C55.488 18.7848 56.0407 19.3224 56.0407 19.9918C56.0407 20.6613 55.488 21.1989 54.7972 21.1989Z" fill="#666464"/>
<path d="M57.5499 10.7209H55.9451V16.7155H57.5499V14.2609H59.0272V12.8814H57.5499V10.7209Z" fill="#666464"/>
<path d="M64.6919 15.2955H63.0871V17.4865H59.5586V18.8558H68.231V17.4865H64.6919V15.2955Z" fill="#666464"/>
<path d="M44.1799 20.4483H42.5751V18.2574H39.0359V16.8881H47.719V18.2574H44.1799V20.4483Z" fill="#666464"/>
<path d="M61.4397 15.7824L63.8948 13.2568L66.3498 15.7824L67.5189 14.7276L65.0957 12.3033H67.1894V10.8833H60.6001V12.3033H62.6938L60.2706 14.7276L61.4397 15.7824Z" fill="#666464"/>
<path d="M40.9277 15.7824L43.3828 13.2568L45.8379 15.7824L46.9963 14.7276L44.5838 12.3033H46.6775V10.8833H40.0881V12.3033H42.1712L39.7587 14.7276L40.9277 15.7824Z" fill="#666464"/>
<path d="M120.127 16.959H121.636V10.7209H120.127V12.7293H118.809V14.0986H120.127V16.959Z" fill="#666464"/>
<path d="M112.039 10.7209H110.466V16.9691H112.039V10.7209Z" fill="#666464"/>
<path d="M124.134 10.7209H122.561V16.9691H124.134V10.7209Z" fill="#666464"/>
<path d="M54.5847 15.1942L52.5547 12.2324H54.2552V10.8428H52.4272V9.84875H50.7054V10.8428H48.8774V12.2324H50.5779C49.7914 13.3786 48.548 15.1942 48.548 15.1942L49.8552 16.0462L51.5769 13.4293L53.2987 16.0462L54.6059 15.1942H54.5847Z" fill="#666464"/>
<path d="M99.5091 12.2931H97.8298V13.6016H99.5091V14.6565H97.8298V15.965H99.5091V17.2531H101.124V10.7209H99.5091V12.2931Z" fill="#666464"/>
<path d="M75.2348 17.3445C73.7256 17.3445 72.4928 18.5312 72.4928 19.9918C72.4928 21.4525 73.7256 22.6392 75.2348 22.6392C76.744 22.6392 77.9768 21.4525 77.9768 19.9918C77.9768 18.5312 76.7546 17.3445 75.2348 17.3445ZM75.2348 21.1989C74.544 21.1989 73.9913 20.6613 73.9913 19.9918C73.9913 19.3224 74.5546 18.7848 75.2348 18.7848C75.915 18.7848 76.4783 19.3224 76.4783 19.9918C76.4783 20.6613 75.9256 21.1989 75.2348 21.1989Z" fill="#666464"/>
<path d="M108.341 15.1231L105.323 10.7209L102.294 15.1231L103.601 15.9751L105.323 13.3683L107.034 15.9751L108.341 15.1231Z" fill="#666464"/>
<path d="M108.405 17.9531H106.81V22.1118H112.146V20.7425H108.405V17.9531Z" fill="#666464"/>
<path d="M132.796 10.7209V13.6117H131.244V14.9811H132.796V19.4745H134.411V10.7209H132.796Z" fill="#666464"/>
<path d="M120.499 17.9531H118.905V22.1118H124.23V20.7425H120.499V17.9531Z" fill="#666464"/>
<path d="M127.577 14.9608H130.479V13.6321H127.577V12.2526H130.596V10.8833H125.994V17.8009H130.713V16.4113H127.577V14.9608Z" fill="#666464"/>
<path d="M116.12 10.7209L113.177 15.1129L114.484 15.965L116.12 13.3683L117.747 15.965L119.054 15.1129L116.12 10.7209Z" fill="#666464"/>
<path d="M84.6618 12.2729V10.8833H79.7623V12.2729H81.2396L79.2734 15.2246L80.5807 16.0766L82.2068 13.4799L83.8435 16.0766L85.1507 15.2246L83.1739 12.2729H84.6618Z" fill="#666464"/>
<path d="M86.1815 12.7293H84.7042V14.0986H86.1815V19.4745H87.6907V10.7209H86.1815V12.7293Z" fill="#666464"/>
<path d="M76.372 11.7555H74.6821V13.064H76.372V14.1189H74.6821V15.4274H76.372V16.7155H77.9768V10.7209H76.372V11.7555Z" fill="#666464"/>
<path d="M90.1883 10.7209H88.6154V19.4745H90.1883V10.7209Z" fill="#666464"/>
<path d="M95.7786 19.7382H99.3921V22.3044H100.997V18.3588H95.7786V19.7382Z" fill="#666464"/>
<path d="M97.0859 14.7985C97.0859 13.5002 95.9912 12.4453 94.6521 12.4453C93.3129 12.4453 92.2183 13.5002 92.2183 14.7985C92.2183 16.0968 93.3023 17.1517 94.6521 17.1517C96.0018 17.1517 97.0859 16.0968 97.0859 14.7985ZM94.6521 15.7215C94.1313 15.7215 93.7062 15.3057 93.7062 14.7985C93.7062 14.2914 94.1313 13.8755 94.6521 13.8755C95.1728 13.8755 95.598 14.2812 95.598 14.7985C95.598 15.3158 95.1728 15.7215 94.6521 15.7215Z" fill="#666464"/>
<path d="M97.3302 10.8325H95.4597V9.8385H93.738V10.8325H91.8462V12.1816H97.3302V10.8325Z" fill="#666464"/>
<path d="M28.9288 16.0462L27.6534 15.113L29.9385 12.5569H28.2061V11.0253H33.0524V12.5569H31.3201L33.0524 14.5145V13.0742H34.6041V10.3457H36.0602V19.8498H34.6041V14.6058H33.1375L33.6157 15.1333L32.3404 16.0563L30.6399 14.0277L28.9288 16.0563V16.0462ZM36.7616 19.8397V10.3356H38.2495V19.8397H36.7616Z" fill="#666464"/>
<path d="M11.7434 9.52417L7.82166 16.0462L11.7434 23.1768L19.7462 23.5217L24.21 16.3201L19.9163 9.59517L11.7434 9.52417Z" fill="white"/>
<path d="M11.3289 23.1057C11.754 23.1057 12.7636 23.5013 13.8583 24.1099C15.1231 24.8199 16.0689 25.5705 16.0796 25.8647C16.0796 25.885 16.0796 25.9053 16.0689 25.9255C16.0371 25.9661 15.9733 25.9965 15.8776 25.9965C15.4525 25.9965 14.4429 25.601 13.3482 24.9924C12.0728 24.2823 11.1269 23.5216 11.1269 23.2376C11.1269 23.2173 11.1269 23.197 11.1376 23.1869C11.1695 23.1463 11.2332 23.1159 11.3289 23.1159M8.57623 22.6392L14.326 25.8444C14.783 26.1081 15.3888 26.2501 15.9945 26.2501C16.5472 26.2501 17.0892 26.1385 17.5037 25.9154L17.9395 25.672C18.1414 25.53 18.3008 25.388 18.439 25.2459C18.6622 25.0228 18.8747 24.6576 18.8747 24.6576L19.9163 22.9232H9.95787C9.95787 22.9232 9.52212 22.9232 9.21391 22.8522C9.02261 22.8116 8.81005 22.7406 8.57623 22.6493" fill="url(#paint0_linear_719_1334)"/>
<path d="M19.6931 23.7347C19.6931 23.4406 20.639 22.69 21.9143 21.9799C23.0196 21.3612 24.0293 20.9758 24.4438 20.9758C24.5394 20.9758 24.6138 20.9961 24.6351 21.0468C24.6351 21.0569 24.6457 21.0772 24.6457 21.0975C24.6457 21.3815 23.6998 22.1422 22.4245 22.8523C21.3192 23.471 20.3095 23.8564 19.895 23.8564C19.7994 23.8564 19.725 23.8361 19.7037 23.7854C19.7037 23.7651 19.6931 23.755 19.6931 23.7347ZM23.8486 16.3201L19.9056 22.9131L18.8641 24.6476C18.8641 24.6476 18.6515 25.0127 18.4283 25.2359C18.2902 25.3779 18.1201 25.5199 17.9288 25.6619L23.6786 22.4567C24.5713 21.9901 25.3153 20.8033 25.3259 19.8296V19.3529C25.294 19.1094 25.2515 18.9066 25.1984 18.724C25.1027 18.4298 24.8901 18.0647 24.8901 18.0647L23.8486 16.3302" fill="url(#paint1_linear_719_1334)"/>
<path d="M24.0187 14.1798C24.0187 12.6583 24.2525 11.431 24.5395 11.431C24.8264 11.431 25.0603 12.6583 25.0603 14.1798C25.0603 15.7012 24.8264 16.9286 24.5395 16.9286C24.2525 16.9286 24.0187 15.7012 24.0187 14.1798ZM21.9888 9.72693H19.9163L24.8902 18.0545C24.8902 18.0545 25.1028 18.4196 25.1984 18.7138C25.2516 18.8963 25.3047 19.1093 25.326 19.3426V12.9322C25.3472 11.9584 24.667 10.7412 23.7955 10.2442L23.3598 10.0008C23.1366 9.90951 22.924 9.8385 22.7221 9.79793C22.4139 9.72693 21.9781 9.72693 21.9781 9.72693" fill="url(#paint2_linear_719_1334)"/>
<path d="M6.88636 18.4602C6.88636 16.9388 7.12018 15.7114 7.40713 15.7114C7.69409 15.7114 7.9279 16.9388 7.9279 18.4602C7.9279 19.9817 7.69409 21.209 7.40713 21.209C7.12018 21.209 6.88636 19.9817 6.88636 18.4602ZM6.62066 13.2872V19.6977C6.59941 20.6714 7.2796 21.8886 8.15109 22.3958L8.58684 22.6392C8.81002 22.7305 9.02258 22.8015 9.22451 22.8421C9.54335 22.9131 9.96847 22.9131 9.96847 22.9131H12.0409L7.05641 14.5856C7.05641 14.5856 6.84385 14.2204 6.7482 13.9262C6.69506 13.7437 6.64192 13.5307 6.62066 13.2974" fill="url(#paint3_linear_719_1334)"/>
<path d="M16.0583 6.64346C16.4834 6.64346 17.4931 7.03904 18.5878 7.64763C19.8631 8.35765 20.809 9.10825 20.809 9.4024C20.809 9.42268 20.809 9.44297 20.7984 9.45311C20.7665 9.50383 20.7027 9.52411 20.6071 9.52411C20.182 9.52411 19.1723 9.12853 18.0776 8.51994C16.8023 7.80992 15.8458 7.04919 15.8564 6.76518C15.8564 6.74489 15.8564 6.72461 15.867 6.71446C15.8989 6.67389 15.9627 6.64346 16.0583 6.64346ZM15.9521 6.40002C15.3994 6.40002 14.8574 6.5116 14.4429 6.73475L14.0071 6.97818C13.8052 7.12019 13.6458 7.26219 13.5076 7.4042C13.2844 7.62735 13.0719 7.9925 13.0719 7.9925L12.0303 9.72698H21.9781C21.9781 9.72698 22.4138 9.72698 22.7221 9.79798C22.9134 9.83855 23.1259 9.90955 23.3597 10.0008L17.6206 6.80575C17.1743 6.53189 16.5578 6.40002 15.9627 6.40002" fill="url(#paint4_linear_719_1334)"/>
<path d="M12.0409 8.78364C12.1366 8.78364 12.2003 8.80393 12.2322 8.85464C12.2322 8.87493 12.2429 8.88507 12.2429 8.90536C12.2429 9.19951 11.297 9.9501 10.0216 10.6601C8.91631 11.2789 7.90665 11.6643 7.49216 11.6643C7.39651 11.6643 7.32211 11.644 7.30086 11.5933C7.30086 11.573 7.29023 11.5629 7.29023 11.5426C7.29023 11.2484 8.23612 10.4978 9.51147 9.78781C10.6168 9.16908 11.6158 8.78364 12.0409 8.78364ZM14.0071 6.97816L8.268 10.1834C7.37525 10.65 6.63129 11.8266 6.62067 12.8105V13.2872C6.65255 13.5205 6.69506 13.7335 6.7482 13.9161C6.84385 14.2102 7.05641 14.5754 7.05641 14.5754L8.09795 16.3099L12.0409 9.71681L13.0825 7.98233C13.0825 7.98233 13.295 7.61718 13.5182 7.39403C13.6564 7.25203 13.8264 7.11002 14.0177 6.96802" fill="url(#paint5_linear_719_1334)"/>
<mask id="mask0_719_1334" style="mask-type:luminance" maskUnits="userSpaceOnUse" x="6" y="6" width="20" height="21">
<path d="M23.7954 10.2442L17.6206 6.8057C16.7597 6.29854 15.325 6.26811 14.4428 6.7347L8.268 10.1834C7.37525 10.65 6.63129 11.8266 6.62066 12.8104V19.6976C6.59941 20.6714 7.2796 21.8886 8.15109 22.3957L14.3259 25.8342C15.1868 26.3414 16.6216 26.3718 17.5037 25.9053L23.6785 22.4566C24.5713 21.99 25.3152 20.8032 25.3259 19.8295V12.9423C25.3471 11.9686 24.6669 10.7514 23.7954 10.2544" fill="white"/>
</mask>
<g mask="url(#mask0_719_1334)">
<path d="M8.09798 16.32C8.09798 16.32 6.93953 11.857 9.88348 9.25018L11.3501 8.42859C11.3501 8.42859 7.40716 10.7919 8.09798 16.32Z" fill="white"/>
<path d="M12.0303 22.9028C12.0303 22.9028 7.4603 21.6451 6.58881 17.8819V16.2489C6.58881 16.2489 6.7376 20.722 12.0303 22.913V22.9028Z" fill="white"/>
<path d="M19.9163 22.9028C19.9163 22.9028 16.5047 26.0979 12.6893 24.9416L11.2226 24.1302C11.2226 24.1302 15.3037 26.2399 19.9163 22.9028Z" fill="white"/>
<path d="M23.8486 16.3199C23.8486 16.3199 25.007 20.7829 22.0631 23.3897L20.5964 24.2113C20.5964 24.2113 24.5288 21.848 23.8486 16.3301V16.3199Z" fill="white"/>
<path d="M19.9163 9.72682C19.9163 9.72682 24.4969 10.9846 25.3578 14.7477V16.3807C25.3578 16.3807 25.209 11.9076 19.9163 9.71667V9.72682Z" fill="white"/>
<path d="M12.0303 9.72688C12.0303 9.72688 15.4525 6.53179 19.2573 7.68811L20.724 8.49956C20.724 8.49956 16.6429 6.39993 12.0303 9.72688Z" fill="white"/>
</g>
<defs>
<linearGradient id="paint0_linear_719_1334" x1="21.9859" y1="24.1279" x2="27.2718" y2="21.0325" gradientUnits="userSpaceOnUse">
<stop stop-color="#0050A2"/>
<stop offset="0.25" stop-color="#0452A3"/>
<stop offset="0.55" stop-color="#1358A6"/>
<stop offset="0.87" stop-color="#2A62AB"/>
<stop offset="1" stop-color="#3668AE"/>
</linearGradient>
<linearGradient id="paint1_linear_719_1334" x1="26.1096" y1="7.53493" x2="26.0368" y2="13.6845" gradientUnits="userSpaceOnUse">
<stop stop-color="#DF033B"/>
<stop offset="0.22" stop-color="#DF093D"/>
<stop offset="0.52" stop-color="#E01A45"/>
<stop offset="0.85" stop-color="#E13651"/>
<stop offset="1" stop-color="#E24558"/>
</linearGradient>
<linearGradient id="paint2_linear_719_1334" x1="5.21214" y1="11.012" x2="10.5647" y2="14.3447" gradientUnits="userSpaceOnUse">
<stop stop-color="#0050A2"/>
<stop offset="0.25" stop-color="#0452A3"/>
<stop offset="0.55" stop-color="#1358A6"/>
<stop offset="0.87" stop-color="#2A62AB"/>
<stop offset="1" stop-color="#3668AE"/>
</linearGradient>
<linearGradient id="paint3_linear_719_1334" x1="25.5521" y1="34.2019" x2="20.2826" y2="30.8316" gradientUnits="userSpaceOnUse">
<stop stop-color="#DF033B"/>
<stop offset="0.22" stop-color="#DF093D"/>
<stop offset="0.52" stop-color="#E01A45"/>
<stop offset="0.85" stop-color="#E13651"/>
<stop offset="1" stop-color="#E24558"/>
</linearGradient>
<linearGradient id="paint4_linear_719_1334" x1="21.3992" y1="6.87479" x2="26.8052" y2="3.77746" gradientUnits="userSpaceOnUse">
<stop stop-color="#DF033B"/>
<stop offset="0.22" stop-color="#DF093D"/>
<stop offset="0.52" stop-color="#E01A45"/>
<stop offset="0.85" stop-color="#E13651"/>
<stop offset="1" stop-color="#E24558"/>
</linearGradient>
<linearGradient id="paint5_linear_719_1334" x1="24.9592" y1="10.6804" x2="24.8863" y2="4.60707" gradientUnits="userSpaceOnUse">
<stop stop-color="#0050A2"/>
<stop offset="0.25" stop-color="#0452A3"/>
<stop offset="0.55" stop-color="#1358A6"/>
<stop offset="0.87" stop-color="#2A62AB"/>
<stop offset="1" stop-color="#3668AE"/>
</linearGradient>
</defs>
</svg>
