<svg width="1080" height="320" viewBox="0 0 1080 320" fill="none" xmlns="http://www.w3.org/2000/svg">
<path d="M80.3875 85.1247H363.084C385.375 85.1247 403.472 103.222 403.472 125.512V249.423H80.3875C58.097 249.423 40 231.326 40 209.035V125.512C40 103.222 58.097 85.1247 80.3875 85.1247Z" fill="#43B149" stroke="#43B149" stroke-width="5" stroke-linecap="round" stroke-linejoin="round"/>
<path d="M1036.46 111.673H561.524V275.971H1036.46V111.673Z" fill="white" stroke="#43B149" stroke-width="5" stroke-linecap="round" stroke-linejoin="round"/>
<path d="M129.974 192.893C129.974 197.207 128.63 200.706 125.943 203.393C123.256 206.08 119.755 207.423 115.443 207.423H79.3154V189.509H110.069V127.504H129.974V192.893Z" fill="white"/>
<path d="M210.887 207.423H155.65C151.337 207.423 147.838 206.08 145.151 203.393C142.463 200.706 141.12 197.207 141.12 192.893V142.035C141.12 137.723 142.463 134.223 145.151 131.536C147.838 128.848 151.337 127.504 155.65 127.504H210.887V145.419H161.025V158.159H209.295V174.58H161.025V189.509H210.887V207.423Z" fill="white"/>
<path d="M268.114 192.893C268.114 197.207 266.77 200.706 264.083 203.393C261.396 206.08 257.895 207.423 253.583 207.423H217.456V189.509H248.209V127.504H268.114V192.893Z" fill="white"/>
<path d="M349.923 192.893C349.923 197.207 348.579 200.706 345.892 203.393C343.205 206.08 339.704 207.423 335.392 207.423H293.79C289.477 207.423 285.978 206.08 283.291 203.393C280.603 200.706 279.26 197.207 279.26 192.893V127.504H299.165V189.509H330.018V127.504H349.923V192.893Z" fill="white"/>
<path d="M577.726 34.7722H382.224V230.274H577.726V34.7722Z" fill="white" stroke="#43B149" stroke-width="5" stroke-linecap="round" stroke-linejoin="round"/>
<path d="M510.944 154.706H466.434V138.141H485.448V126.474L476.661 135.26H459.664V154.706H434.312V135.26H415.01V117.975H485.448V75.9137H510.944V154.706ZM441.658 114.518C433.88 114.518 427.685 112.742 423.076 109.188C418.466 105.636 416.162 100.546 416.162 93.9195C416.162 87.2934 418.466 82.2045 423.076 78.6507C427.685 75.0989 433.88 73.3208 441.658 73.3208H456.495C464.273 73.3208 470.467 75.0989 475.076 78.6507C479.686 82.2045 481.99 87.2934 481.99 93.9195C481.99 100.546 479.733 105.636 475.221 109.188C470.706 112.742 464.561 114.518 456.783 114.518H441.658ZM542.49 202.674H428.694V158.308H456.927V164.357H514.257V158.308H542.49V202.674ZM453.614 97.5207C456.589 97.5207 458.079 96.3208 458.079 93.9195C458.079 91.5202 456.589 90.3184 453.614 90.3184H444.539C441.561 90.3184 440.073 91.5202 440.073 93.9195C440.073 96.3208 441.561 97.5207 444.539 97.5207H453.614ZM514.257 185.82V180.058H456.927V185.82H514.257ZM542.49 154.706H516.706V75.4816H542.49V154.706Z" fill="#43B149"/>
<path d="M577.726 52.5444C587.541 52.5444 595.498 44.5875 595.498 34.7722C595.498 24.9569 587.541 17 577.726 17C567.91 17 559.953 24.9569 559.953 34.7722C559.953 44.5875 567.91 52.5444 577.726 52.5444Z" fill="white" stroke="#43B149" stroke-width="5" stroke-linecap="round" stroke-linejoin="round"/>
<path d="M569.918 34.9566L585.534 34.5878" stroke="#43B149" stroke-width="5" stroke-linecap="round" stroke-linejoin="round"/>
<path d="M577.91 42.5801L577.541 26.9643" stroke="#43B149" stroke-width="5" stroke-linecap="round" stroke-linejoin="round"/>
<path d="M694.987 215.672H674.06V185.884H657.724C656.443 187.165 654.983 188.163 653.347 188.873C646.015 192.361 638.72 195.707 631.459 198.909C624.2 202.112 616.868 205.245 609.465 208.305L602.419 193.251C605.978 191.828 609.465 190.421 612.882 189.033C616.299 187.645 619.716 186.204 623.132 184.709H605.729V169.869H641.069V164.744H607.438V148.942H661.995V167.947H674.06V147.554H694.987V215.672ZM695.521 241.83H614.271V209.372H635.197V224.32H695.521V241.83Z" fill="#43B149"/>
<path d="M796.95 241.83H776.023V225.601L766.947 234.676H705.557V216.74H713.457V166.986H706.09V149.156H768.55V166.986H761.717V216.74H776.023V199.55H765.453V180.439H776.023V147.554H796.95V241.83ZM741.43 216.74V166.986H733.743V216.74H741.43Z" fill="#43B149"/>
<path d="M868.377 205.529H809.121V169.228H840.19V163.356H809.121V148.088H861.117V183.642H830.048V189.621H868.377V205.529ZM898.379 241.83H816.274V209.693H837.307V225.815H898.379V241.83ZM897.845 216.206H876.918V182.787H864.853V164.851H876.918V147.554H897.845V216.206Z" fill="#43B149"/>
<path d="M990.945 212.469C984.966 208.555 979.075 204.515 973.275 200.351C967.473 196.187 961.548 191.508 955.499 186.311C949.448 191.508 943.503 196.187 937.669 200.351C931.831 204.515 925.959 208.555 920.052 212.469L908.414 197.308C910.833 195.529 913.378 193.624 916.047 191.596C918.717 189.567 921.403 187.469 924.108 185.297C926.812 183.126 929.464 180.902 932.063 178.624C934.66 176.346 937.097 174.069 939.376 171.79C941.085 170.082 942.259 168.464 942.899 166.932C943.54 165.403 943.86 163.499 943.86 161.22V149.156H967.136V161.22C967.136 163.499 967.457 165.403 968.097 166.932C968.738 168.464 969.912 170.082 971.62 171.79C973.826 174.069 976.246 176.346 978.88 178.624C981.513 180.902 984.182 183.126 986.888 185.297C989.592 187.469 992.28 189.567 994.949 191.596C997.618 193.624 1000.16 195.529 1002.58 197.308L990.945 212.469ZM1002.58 238.413H908.414V220.477H1002.58V238.413Z" fill="#43B149"/>
<path d="M1020.15 253.721L1027.39 302.883L1039.67 287.581L1059.07 284.622L1020.15 253.721Z" fill="white" stroke="#43B149" stroke-width="5" stroke-linecap="round" stroke-linejoin="round"/>
<path d="M449.343 122.944C433.203 122.944 419.902 110.81 418.405 94.7195C417.635 86.447 420.133 78.3694 425.437 71.9753C430.743 65.5813 438.221 61.6355 446.494 60.8655C447.462 60.7751 448.443 60.7297 449.41 60.7297C465.55 60.7297 478.85 72.8635 480.348 88.9543C481.118 97.2268 478.62 105.304 473.315 111.699C468.01 118.093 460.532 122.038 452.259 122.808C451.291 122.899 450.309 122.944 449.343 122.944Z" fill="white"/>
<path d="M449.41 63.2297C464.013 63.2285 476.478 74.3562 477.859 89.186C479.323 104.916 467.758 118.855 452.027 120.319C451.127 120.403 450.23 120.444 449.343 120.444C434.739 120.444 422.274 109.318 420.894 94.4881C419.43 78.7578 430.995 64.8189 446.725 63.3548C447.626 63.2709 448.523 63.2298 449.41 63.2297ZM449.412 58.2297H449.409C448.364 58.2298 447.305 58.2791 446.262 58.3763C427.811 60.0936 414.198 76.5011 415.915 94.9515C416.696 103.342 420.563 111.077 426.802 116.732C433 122.35 441.006 125.444 449.343 125.444C450.387 125.444 451.446 125.395 452.491 125.298C470.941 123.58 484.554 107.173 482.837 88.7226C482.056 80.3326 478.19 72.5976 471.952 66.9425C465.753 61.324 457.749 58.2297 449.412 58.2297Z" fill="#43B149"/>
<path d="M449.376 120.442C458.771 120.442 466.386 107.635 466.386 91.837C466.386 76.0387 458.771 63.2316 449.376 63.2316C439.982 63.2316 432.366 76.0387 432.366 91.837C432.366 107.635 439.982 120.442 449.376 120.442Z" fill="white" stroke="#43B149" stroke-width="4" stroke-linecap="round" stroke-linejoin="round"/>
<path d="M449.376 63.2316V120.442" stroke="#43B149" stroke-width="4" stroke-linecap="round" stroke-linejoin="round"/>
<path d="M420.771 91.837H477.982" stroke="#43B149" stroke-width="4" stroke-linecap="round" stroke-linejoin="round"/>
<path d="M428.631 111.533C433.843 107.607 441.21 105.16 449.376 105.16C457.542 105.16 464.909 107.607 470.121 111.533" stroke="#43B149" stroke-width="4" stroke-linecap="round" stroke-linejoin="round"/>
<path d="M470.121 72.1417C464.909 76.0669 457.542 78.5143 449.376 78.5143C441.21 78.5143 433.844 76.067 428.632 72.1417" stroke="#43B149" stroke-width="4" stroke-linecap="round" stroke-linejoin="round"/>
<path d="M667.28 86.336H647.888V77.344C647.888 75.232 649.072 74.016 650.96 73.632L662.16 71.328C662.48 71.264 662.736 71.008 662.736 70.688V65.664C662.736 65.344 662.48 65.088 662.16 65.088H653.2C652.88 65.088 652.624 65.344 652.624 65.664V69.952H648.208V64.832C648.208 62.72 649.904 61.12 651.92 61.12H663.44C665.456 61.12 667.152 62.72 667.152 64.832V71.328C667.152 73.44 665.968 74.656 664.08 75.04L652.88 77.312C652.56 77.376 652.304 77.568 652.304 77.888V82.368H667.28V86.336ZM686.596 86.336H674.756C672.74 86.336 671.044 84.736 671.044 82.624V64.832C671.044 62.72 672.74 61.12 674.756 61.12H686.596C688.612 61.12 690.308 62.72 690.308 64.832V82.624C690.308 84.736 688.612 86.336 686.596 86.336ZM685.892 81.792V65.664C685.892 65.344 685.636 65.088 685.316 65.088H676.036C675.716 65.088 675.46 65.344 675.46 65.664V81.792C675.46 82.112 675.716 82.368 676.036 82.368H685.316C685.636 82.368 685.892 82.112 685.892 81.792ZM713.468 86.336H694.076V77.344C694.076 75.232 695.26 74.016 697.148 73.632L708.347 71.328C708.668 71.264 708.924 71.008 708.924 70.688V65.664C708.924 65.344 708.668 65.088 708.347 65.088H699.388C699.068 65.088 698.812 65.344 698.812 65.664V69.952H694.396V64.832C694.396 62.72 696.092 61.12 698.108 61.12H709.628C711.644 61.12 713.34 62.72 713.34 64.832V71.328C713.34 73.44 712.156 74.656 710.267 75.04L699.068 77.312C698.748 77.376 698.492 77.568 698.492 77.888V82.368H713.468V86.336ZM734.288 86.816H729.872V82.72H716.368V78.592L728.912 61.12H734.288V78.752H738.064V82.72H734.288V86.816ZM729.872 78.752V66.4L721.008 78.752H729.872ZM745.75 87.744H740.758V82.72H745.75V87.744ZM763.054 86.336H758.638V65.088H756.27V61.12H763.054V86.336ZM786.811 86.336H767.419V77.344C767.419 75.232 768.603 74.016 770.491 73.632L781.691 71.328C782.011 71.264 782.267 71.008 782.267 70.688V65.664C782.267 65.344 782.011 65.088 781.691 65.088H772.731C772.411 65.088 772.155 65.344 772.155 65.664V69.952H767.739V64.832C767.739 62.72 769.435 61.12 771.451 61.12H782.971C784.987 61.12 786.683 62.72 786.683 64.832V71.328C786.683 73.44 785.499 74.656 783.611 75.04L772.411 77.312C772.091 77.376 771.835 77.568 771.835 77.888V82.368H786.811V86.336ZM795.344 87.744H790.352V82.72H795.344V87.744ZM826.28 86.336H806.888V77.344C806.888 75.232 808.072 74.016 809.96 73.632L821.16 71.328C821.48 71.264 821.736 71.008 821.736 70.688V65.664C821.736 65.344 821.48 65.088 821.16 65.088H812.2C811.88 65.088 811.624 65.344 811.624 65.664V69.952H807.208V64.832C807.208 62.72 808.904 61.12 810.92 61.12H822.44C824.456 61.12 826.152 62.72 826.152 64.832V71.328C826.152 73.44 824.968 74.656 823.08 75.04L811.88 77.312C811.56 77.376 811.304 77.568 811.304 77.888V82.368H826.28V86.336ZM845.596 86.336H833.756C831.74 86.336 830.044 84.736 830.044 82.624V64.832C830.044 62.72 831.74 61.12 833.756 61.12H845.596C847.612 61.12 849.308 62.72 849.308 64.832V82.624C849.308 84.736 847.612 86.336 845.596 86.336ZM844.892 81.792V65.664C844.892 65.344 844.636 65.088 844.316 65.088H835.036C834.716 65.088 834.46 65.344 834.46 65.664V81.792C834.46 82.112 834.716 82.368 835.036 82.368H844.316C844.636 82.368 844.892 82.112 844.892 81.792ZM875.028 70.016L878.484 71.616C877.748 74.72 875.828 77.152 873.012 77.152C869.428 77.152 868.02 73.856 865.908 73.856C865.076 73.856 864.532 74.72 863.924 76.704L860.532 75.072C861.268 71.968 863.124 69.568 865.94 69.568C869.524 69.568 870.932 72.864 873.044 72.864C873.876 72.864 874.42 72 875.028 70.016ZM895.461 86.336H891.045V65.088H888.677V61.12H895.461V86.336ZM919.218 86.336H899.826V77.344C899.826 75.232 901.01 74.016 902.898 73.632L914.097 71.328C914.418 71.264 914.674 71.008 914.674 70.688V65.664C914.674 65.344 914.418 65.088 914.097 65.088H905.138C904.818 65.088 904.562 65.344 904.562 65.664V69.952H900.146V64.832C900.146 62.72 901.842 61.12 903.858 61.12H915.378C917.394 61.12 919.09 62.72 919.09 64.832V71.328C919.09 73.44 917.906 74.656 916.017 75.04L904.818 77.312C904.498 77.376 904.242 77.568 904.242 77.888V82.368H919.218V86.336ZM927.75 87.744H922.758V82.72H927.75V87.744ZM958.686 86.336H939.294V77.344C939.294 75.232 940.478 74.016 942.366 73.632L953.566 71.328C953.886 71.264 954.142 71.008 954.142 70.688V65.664C954.142 65.344 953.886 65.088 953.566 65.088H944.606C944.286 65.088 944.03 65.344 944.03 65.664V69.952H939.614V64.832C939.614 62.72 941.31 61.12 943.326 61.12H954.846C956.862 61.12 958.558 62.72 958.558 64.832V71.328C958.558 73.44 957.374 74.656 955.486 75.04L944.286 77.312C943.966 77.376 943.71 77.568 943.71 77.888V82.368H958.686V86.336ZM968.211 86.336H963.795V65.088H961.427V61.12H968.211V86.336Z" fill="#43B149"/>
</svg>
