<svg width="20" height="20" viewBox="0 0 20 20" fill="none" xmlns="http://www.w3.org/2000/svg">
<path fill-rule="evenodd" clip-rule="evenodd" d="M16.25 4.7156C16.25 4.185 15.7141 3.82218 15.2215 4.01924L12.75 5.00782V11.9923L15.2215 12.9809C15.7141 13.1779 16.25 12.8151 16.25 12.2845V4.7156ZM11.25 11.75V5.25005H7C5.20507 5.25005 3.75 6.70512 3.75 8.50005C3.75 10.295 5.20507 11.75 7 11.75H11.25ZM8.91442 13.25H6.89866L7.33213 15.6341C7.45368 16.3026 8.16497 16.6848 8.78949 16.4171C9.26669 16.2126 9.52492 15.692 9.399 15.1884L8.91442 13.25ZM5.31839 12.9438L5.85632 15.9025C6.15023 17.519 7.87021 18.4431 9.38037 17.7959C10.5343 17.3013 11.1587 16.0425 10.8542 14.8246L10.4606 13.25H11.8556L14.6644 14.3736C16.1423 14.9647 17.75 13.8763 17.75 12.2845V4.7156C17.75 3.1238 16.1423 2.03535 14.6644 2.62653L11.8556 3.75005H7C4.37665 3.75005 2.25 5.8767 2.25 8.50005C2.25 10.5313 3.52502 12.2648 5.31839 12.9438Z" fill="#2E6FF2"/>
</svg>
