<svg width="138" height="20" viewBox="0 0 138 20" fill="none" xmlns="http://www.w3.org/2000/svg">
<g clip-path="url(#clip0_533_583)">
<path d="M27.8085 5.40379V4.53522L30.8353 4.53017V7.27728C30.3707 7.66107 29.8914 7.95059 29.3975 8.14585C28.9036 8.33775 28.3967 8.43369 27.8768 8.43369C27.1749 8.43369 26.5364 8.27883 25.9612 7.96911C25.3894 7.65602 24.9572 7.2049 24.6647 6.61575C24.3723 6.0266 24.2261 5.36844 24.2261 4.64126C24.2261 3.92082 24.3707 3.24919 24.6599 2.62638C24.9523 2.0002 25.3715 1.53561 25.9174 1.23262C26.4633 0.929632 27.092 0.778137 27.8036 0.778137C28.3203 0.778137 28.7866 0.865668 29.2025 1.04073C29.6217 1.21242 29.9499 1.45313 30.1871 1.76286C30.4243 2.07258 30.6046 2.47657 30.7281 2.97482L29.8751 3.21721C29.7679 2.84015 29.6347 2.5439 29.4755 2.32844C29.3162 2.11298 29.0888 1.94128 28.7931 1.81335C28.4974 1.68206 28.1692 1.61641 27.8085 1.61641C27.3764 1.61641 27.0027 1.68543 26.6875 1.82345C26.3723 1.95812 26.1172 2.13654 25.9223 2.35874C25.7305 2.58093 25.5811 2.82501 25.4738 3.09096C25.2919 3.54882 25.2009 4.04538 25.2009 4.58067C25.2009 5.24051 25.3097 5.79263 25.5275 6.23701C25.7484 6.6814 26.0685 7.01132 26.4876 7.22678C26.9068 7.44224 27.352 7.54997 27.8231 7.54997C28.2326 7.54997 28.6322 7.46917 29.0222 7.30758C29.4121 7.14262 29.7078 6.96756 29.9092 6.7824V5.40379H27.8085Z" fill="#646C73"/>
<path d="M31.9756 5.62596C31.9756 4.63283 32.242 3.89724 32.7749 3.41918C33.2201 3.02193 33.7627 2.8233 34.4029 2.8233C35.1145 2.8233 35.6961 3.0657 36.1478 3.55048C36.5995 4.0319 36.8253 4.69848 36.8253 5.55022C36.8253 6.24036 36.7246 6.78406 36.5231 7.18131C36.3249 7.5752 36.0341 7.88156 35.6506 8.10038C35.2705 8.31921 34.8545 8.42862 34.4029 8.42862C33.6783 8.42862 33.0917 8.18792 32.6433 7.7065C32.1982 7.22508 31.9756 6.53157 31.9756 5.62596ZM32.8773 5.62596C32.8773 6.31274 33.0219 6.82783 33.3111 7.17121C33.6003 7.51124 33.9642 7.68125 34.4029 7.68125C34.8383 7.68125 35.2006 7.50955 35.4898 7.16616C35.779 6.82278 35.9236 6.29928 35.9236 5.59566C35.9236 4.93245 35.7774 4.43084 35.4849 4.09081C35.1957 3.74742 34.835 3.57573 34.4029 3.57573C33.9642 3.57573 33.6003 3.74574 33.3111 4.08576C33.0219 4.42579 32.8773 4.93919 32.8773 5.62596Z" fill="#646C73"/>
<path d="M37.532 5.62596C37.532 4.63283 37.7985 3.89724 38.3314 3.41918C38.7765 3.02193 39.3192 2.8233 39.9593 2.8233C40.6709 2.8233 41.2526 3.0657 41.7042 3.55048C42.1559 4.0319 42.3817 4.69848 42.3817 5.55022C42.3817 6.24036 42.281 6.78406 42.0795 7.18131C41.8813 7.5752 41.5905 7.88156 41.2071 8.10038C40.8269 8.31921 40.411 8.42862 39.9593 8.42862C39.2347 8.42862 38.6482 8.18792 38.1998 7.7065C37.7546 7.22508 37.532 6.53157 37.532 5.62596ZM38.4337 5.62596C38.4337 6.31274 38.5783 6.82783 38.8675 7.17121C39.1567 7.51124 39.5207 7.68125 39.9593 7.68125C40.3947 7.68125 40.757 7.50955 41.0462 7.16616C41.3354 6.82278 41.48 6.29928 41.48 5.59566C41.48 4.93245 41.3338 4.43084 41.0414 4.09081C40.7522 3.74742 40.3915 3.57573 39.9593 3.57573C39.5207 3.57573 39.1567 3.74574 38.8675 4.08576C38.5783 4.42579 38.4337 4.93919 38.4337 5.62596Z" fill="#646C73"/>
<path d="M43.4528 8.75181L44.3058 8.88311C44.3415 9.1558 44.4406 9.35443 44.6031 9.47899C44.8208 9.64732 45.1181 9.73148 45.495 9.73148C45.9012 9.73148 46.2148 9.64732 46.4357 9.47899C46.6567 9.31066 46.8062 9.075 46.8842 8.77201C46.9296 8.58685 46.9508 8.19801 46.9475 7.6055C46.5641 8.07345 46.0864 8.30743 45.5145 8.30743C44.8029 8.30743 44.2522 8.04147 43.8622 7.50955C43.4723 6.97764 43.2773 6.33967 43.2773 5.59566C43.2773 5.08395 43.3667 4.61263 43.5454 4.18171C43.7241 3.74742 43.9825 3.41245 44.3204 3.17679C44.6616 2.94113 45.0613 2.8233 45.5194 2.8233C46.1303 2.8233 46.634 3.07916 47.0304 3.59088V2.9445H47.8395V7.58025C47.8395 8.41516 47.7566 9.00599 47.5909 9.35275C47.4284 9.70287 47.1685 9.97892 46.811 10.1809C46.4569 10.3829 46.0198 10.4839 45.4999 10.4839C44.8825 10.4839 44.3838 10.3391 44.0036 10.0496C43.6234 9.76346 43.4398 9.33086 43.4528 8.75181ZM44.179 5.53002C44.179 6.23363 44.3139 6.74703 44.5836 7.07022C44.8533 7.39341 45.1912 7.555 45.5974 7.555C46.0003 7.555 46.3383 7.39509 46.6112 7.07527C46.8842 6.75208 47.0206 6.24709 47.0206 5.56032C47.0206 4.90384 46.8793 4.40895 46.5966 4.07566C46.3171 3.74237 45.9792 3.57573 45.5828 3.57573C45.1929 3.57573 44.8614 3.74069 44.5885 4.07061C44.3155 4.39717 44.179 4.88364 44.179 5.53002Z" fill="#646C73"/>
<path d="M49.2368 8.30742V0.904358H50.1141V8.30742H49.2368Z" fill="#646C73"/>
<path d="M54.7378 6.58038L55.6443 6.69653C55.5014 7.24528 55.2365 7.67115 54.8499 7.97414C54.4632 8.27713 53.9693 8.42862 53.3681 8.42862C52.611 8.42862 52.0099 8.18792 51.5647 7.7065C51.1228 7.22171 50.9019 6.54335 50.9019 5.67141C50.9019 4.76917 51.1261 4.06893 51.5745 3.57068C52.0229 3.07243 52.6045 2.8233 53.3194 2.8233C54.0115 2.8233 54.5769 3.06738 55.0156 3.55553C55.4542 4.04368 55.6736 4.73046 55.6736 5.61586C55.6736 5.66973 55.6719 5.75053 55.6687 5.85826H51.8084C51.8409 6.4474 52.0018 6.89852 52.291 7.21161C52.5802 7.5247 52.9408 7.68125 53.373 7.68125C53.6947 7.68125 53.9693 7.59372 54.1967 7.41866C54.4242 7.2436 54.6045 6.96417 54.7378 6.58038ZM51.8572 5.11088H54.7475C54.7085 4.65976 54.598 4.32142 54.4161 4.09586C54.1366 3.74574 53.7743 3.57068 53.3291 3.57068C52.9262 3.57068 52.5867 3.71039 52.3105 3.98982C52.0375 4.26924 51.8864 4.64293 51.8572 5.11088Z" fill="#646C73"/>
<path d="M58.9131 8.30742V0.904358H61.3745C61.9301 0.904358 62.3542 0.939707 62.6466 1.0104C63.056 1.10803 63.4054 1.28478 63.6946 1.54064C64.0715 1.87056 64.3526 2.29306 64.5378 2.80815C64.7262 3.31986 64.8205 3.90565 64.8205 4.56549C64.8205 5.12771 64.7571 5.62596 64.6304 6.06024C64.5036 6.49453 64.3412 6.85475 64.143 7.14091C63.9448 7.4237 63.727 7.64758 63.4898 7.81254C63.2559 7.97413 62.9716 8.09701 62.6369 8.18118C62.3054 8.26534 61.9236 8.30742 61.4915 8.30742H58.9131ZM59.8587 7.4338H61.3842C61.8554 7.4338 62.2242 7.38835 62.4907 7.29745C62.7604 7.20656 62.9748 7.07863 63.134 6.91367C63.3582 6.68137 63.5321 6.36997 63.6556 5.97945C63.7823 5.58556 63.8456 5.10919 63.8456 4.55034C63.8456 3.77603 63.7222 3.18184 63.4752 2.76775C63.2315 2.3503 62.9342 2.07087 62.5833 1.92948C62.3298 1.82848 61.922 1.77798 61.3599 1.77798H59.8587V7.4338Z" fill="#646C73"/>
<path d="M69.1108 6.58038L70.0174 6.69653C69.8744 7.24528 69.6096 7.67115 69.2229 7.97414C68.8362 8.27713 68.3423 8.42862 67.7412 8.42862C66.9841 8.42862 66.3829 8.18792 65.9378 7.7065C65.4959 7.22171 65.2749 6.54335 65.2749 5.67141C65.2749 4.76917 65.4991 4.06893 65.9475 3.57068C66.3959 3.07243 66.9776 2.8233 67.6924 2.8233C68.3846 2.8233 68.95 3.06738 69.3886 3.55553C69.8273 4.04368 70.0466 4.73046 70.0466 5.61586C70.0466 5.66973 70.045 5.75053 70.0417 5.85826H66.1815C66.214 6.4474 66.3748 6.89852 66.664 7.21161C66.9532 7.5247 67.3139 7.68125 67.7461 7.68125C68.0677 7.68125 68.3423 7.59372 68.5698 7.41866C68.7972 7.2436 68.9776 6.96417 69.1108 6.58038ZM66.2302 5.11088H69.1205C69.0816 4.65976 68.9711 4.32142 68.7891 4.09586C68.5097 3.74574 68.1474 3.57068 67.7022 3.57068C67.2993 3.57068 66.9597 3.71039 66.6835 3.98982C66.4106 4.26924 66.2595 4.64293 66.2302 5.11088Z" fill="#646C73"/>
<path d="M72.2963 8.30745L70.3271 2.94452H71.2532L72.3645 6.15622C72.4847 6.50297 72.5952 6.86319 72.6959 7.23688C72.7739 6.95409 72.8828 6.61407 73.0225 6.21681L74.1728 2.94452H75.0745L73.1151 8.30745H72.2963Z" fill="#646C73"/>
<path d="M79.3671 6.58038L80.2737 6.69653C80.1308 7.24528 79.8659 7.67115 79.4792 7.97414C79.0926 8.27713 78.5987 8.42862 77.9975 8.42862C77.2404 8.42862 76.6393 8.18792 76.1941 7.7065C75.7522 7.22171 75.5312 6.54335 75.5312 5.67141C75.5312 4.76917 75.7555 4.06893 76.2039 3.57068C76.6523 3.07243 77.2339 2.8233 77.9488 2.8233C78.6409 2.8233 79.2063 3.06738 79.645 3.55553C80.0836 4.04368 80.303 4.73046 80.303 5.61586C80.303 5.66973 80.3013 5.75053 80.2981 5.85826H76.4378C76.4703 6.4474 76.6312 6.89852 76.9204 7.21161C77.2096 7.5247 77.5702 7.68125 78.0024 7.68125C78.3241 7.68125 78.5987 7.59372 78.8261 7.41866C79.0536 7.2436 79.2339 6.96417 79.3671 6.58038ZM76.4866 5.11088H79.3769C79.3379 4.65976 79.2274 4.32142 79.0455 4.09586C78.766 3.74574 78.4037 3.57068 77.9585 3.57068C77.5556 3.57068 77.2161 3.71039 76.9399 3.98982C76.6669 4.26924 76.5158 4.64293 76.4866 5.11088Z" fill="#646C73"/>
<path d="M81.1899 8.30742V0.904358H82.0673V8.30742H81.1899Z" fill="#646C73"/>
<path d="M83.1055 5.62596C83.1055 4.63282 83.3719 3.89723 83.9048 3.41918C84.35 3.02192 84.8926 2.8233 85.5327 2.8233C86.2444 2.8233 86.826 3.06569 87.2777 3.55047C87.7293 4.03189 87.9552 4.69847 87.9552 5.55021C87.9552 6.24035 87.8544 6.78405 87.653 7.18131C87.4548 7.57519 87.1639 7.88155 86.7805 8.10038C86.4003 8.3192 85.9844 8.42862 85.5327 8.42862C84.8081 8.42862 84.2216 8.18791 83.7732 7.70649C83.328 7.22507 83.1055 6.53156 83.1055 5.62596ZM84.0072 5.62596C84.0072 6.31274 84.1518 6.82782 84.4409 7.17121C84.7301 7.51123 85.0941 7.68124 85.5327 7.68124C85.9682 7.68124 86.3305 7.50955 86.6197 7.16616C86.9089 6.82277 87.0535 6.29927 87.0535 5.59566C87.0535 4.93245 86.9072 4.43083 86.6148 4.09081C86.3256 3.74742 85.9649 3.57572 85.5327 3.57572C85.0941 3.57572 84.7301 3.74573 84.4409 4.08576C84.1518 4.42578 84.0072 4.93918 84.0072 5.62596Z" fill="#646C73"/>
<path d="M88.7559 10.3627V2.9445H89.5552V3.64138C89.7437 3.36869 89.9565 3.16501 90.1937 3.03035C90.4309 2.89232 90.7185 2.8233 91.0564 2.8233C91.4983 2.8233 91.8883 2.94113 92.2262 3.17679C92.5641 3.41245 92.8192 3.74574 92.9914 4.17666C93.1636 4.60421 93.2498 5.07385 93.2498 5.58557C93.2498 6.13431 93.1539 6.6292 92.9622 7.07022C92.7737 7.50787 92.4975 7.84453 92.1336 8.08018C91.7729 8.31248 91.3927 8.42862 90.9931 8.42862C90.7006 8.42862 90.4374 8.36466 90.2035 8.23673C89.9728 8.1088 89.7827 7.94721 89.6332 7.75195V10.3627H88.7559ZM89.5503 5.65626C89.5503 6.34641 89.6852 6.85644 89.9549 7.18636C90.2246 7.51629 90.5511 7.68125 90.9346 7.68125C91.3245 7.68125 91.6576 7.51124 91.9338 7.17121C92.2132 6.82783 92.3529 6.29759 92.3529 5.58051C92.3529 4.8971 92.2165 4.38539 91.9435 4.04536C91.6738 3.70534 91.3505 3.53533 90.9736 3.53533C90.5999 3.53533 90.2684 3.71712 89.9793 4.08071C89.6933 4.44093 89.5503 4.96612 89.5503 5.65626Z" fill="#646C73"/>
<path d="M98.2509 6.58038L99.1575 6.69653C99.0145 7.24528 98.7497 7.67115 98.363 7.97414C97.9764 8.27713 97.4825 8.42862 96.8813 8.42862C96.1242 8.42862 95.5231 8.18792 95.0779 7.7065C94.636 7.22171 94.415 6.54335 94.415 5.67141C94.415 4.76917 94.6392 4.06893 95.0877 3.57068C95.5361 3.07243 96.1177 2.8233 96.8326 2.8233C97.5247 2.8233 98.0901 3.06738 98.5288 3.55553C98.9674 4.04368 99.1868 4.73046 99.1868 5.61586C99.1868 5.66973 99.1851 5.75053 99.1819 5.85826H95.3216C95.3541 6.4474 95.515 6.89852 95.8041 7.21161C96.0933 7.5247 96.454 7.68125 96.8862 7.68125C97.2079 7.68125 97.4825 7.59372 97.7099 7.41866C97.9374 7.2436 98.1177 6.96417 98.2509 6.58038ZM95.3704 5.11088H98.2607C98.2217 4.65976 98.1112 4.32142 97.9292 4.09586C97.6498 3.74574 97.2875 3.57068 96.8423 3.57068C96.4394 3.57068 96.0998 3.71039 95.8236 3.98982C95.5507 4.26924 95.3996 4.64293 95.3704 5.11088Z" fill="#646C73"/>
<path d="M100.254 8.30743V2.9445H101.044V3.75752C101.245 3.3771 101.43 3.12629 101.599 3.0051C101.772 2.8839 101.96 2.8233 102.165 2.8233C102.461 2.8233 102.761 2.92093 103.067 3.11619L102.764 3.95952C102.55 3.82822 102.335 3.76257 102.121 3.76257C101.929 3.76257 101.757 3.82317 101.604 3.94437C101.452 4.0622 101.343 4.22716 101.278 4.43925C101.18 4.76244 101.132 5.11593 101.132 5.49972V8.30743H100.254Z" fill="#646C73"/>
<path d="M109.132 5.40379V4.53522L112.159 4.53017V7.27728C111.694 7.66107 111.215 7.95059 110.721 8.14585C110.227 8.33775 109.72 8.43369 109.2 8.43369C108.498 8.43369 107.86 8.27883 107.284 7.96911C106.713 7.65602 106.28 7.2049 105.988 6.61575C105.696 6.0266 105.549 5.36844 105.549 4.64126C105.549 3.92082 105.694 3.24919 105.983 2.62638C106.276 2.0002 106.695 1.53561 107.241 1.23262C107.787 0.929632 108.415 0.778137 109.127 0.778137C109.644 0.778137 110.11 0.865668 110.526 1.04073C110.945 1.21242 111.273 1.45313 111.51 1.76286C111.748 2.07258 111.928 2.47657 112.051 2.97482L111.198 3.21721C111.091 2.84015 110.958 2.5439 110.799 2.32844C110.639 2.11298 110.412 1.94128 110.116 1.81335C109.821 1.68206 109.492 1.61641 109.132 1.61641C108.7 1.61641 108.326 1.68543 108.011 1.82345C107.696 1.95812 107.44 2.13654 107.245 2.35874C107.054 2.58093 106.904 2.82501 106.797 3.09096C106.615 3.54882 106.524 4.04538 106.524 4.58067C106.524 5.24051 106.633 5.79263 106.851 6.23701C107.072 6.6814 107.392 7.01132 107.811 7.22678C108.23 7.44224 108.675 7.54997 109.146 7.54997C109.556 7.54997 109.955 7.46917 110.345 7.30758C110.735 7.14262 111.031 6.96756 111.232 6.7824V5.40379H109.132Z" fill="#646C73"/>
<path d="M113.659 8.30743V2.9445H114.448V3.75752C114.65 3.3771 114.835 3.12629 115.004 3.0051C115.176 2.8839 115.365 2.8233 115.569 2.8233C115.865 2.8233 116.166 2.92093 116.471 3.11619L116.169 3.95952C115.954 3.82822 115.74 3.76257 115.525 3.76257C115.334 3.76257 115.162 3.82317 115.009 3.94437C114.856 4.0622 114.747 4.22716 114.682 4.43925C114.585 4.76244 114.536 5.11593 114.536 5.49972V8.30743H113.659Z" fill="#646C73"/>
<path d="M116.601 5.62596C116.601 4.63283 116.867 3.89724 117.4 3.41918C117.845 3.02193 118.388 2.8233 119.028 2.8233C119.739 2.8233 120.321 3.0657 120.773 3.55048C121.224 4.0319 121.45 4.69848 121.45 5.55022C121.45 6.24036 121.35 6.78406 121.148 7.18131C120.95 7.5752 120.659 7.88156 120.276 8.10038C119.895 8.31921 119.48 8.42862 119.028 8.42862C118.303 8.42862 117.717 8.18792 117.268 7.7065C116.823 7.22508 116.601 6.53157 116.601 5.62596ZM117.502 5.62596C117.502 6.31274 117.647 6.82783 117.936 7.17121C118.225 7.51124 118.589 7.68125 119.028 7.68125C119.463 7.68125 119.826 7.50955 120.115 7.16616C120.404 6.82278 120.549 6.29928 120.549 5.59566C120.549 4.93245 120.402 4.43084 120.11 4.09081C119.821 3.74742 119.46 3.57573 119.028 3.57573C118.589 3.57573 118.225 3.74574 117.936 4.08576C117.647 4.42579 117.502 4.93919 117.502 5.62596Z" fill="#646C73"/>
<path d="M125.928 8.30745V7.51967C125.525 8.12565 124.978 8.42864 124.285 8.42864C123.98 8.42864 123.694 8.36805 123.428 8.24685C123.164 8.12565 122.968 7.97416 122.838 7.79237C122.711 7.6072 122.622 7.38164 122.57 7.11569C122.534 6.93726 122.516 6.65447 122.516 6.26731V2.94452H123.393V5.91887C123.393 6.39356 123.411 6.71338 123.447 6.87834C123.502 7.11737 123.619 7.3059 123.798 7.44393C123.977 7.57859 124.198 7.64592 124.461 7.64592C124.724 7.64592 124.971 7.5769 125.202 7.43888C125.432 7.29748 125.595 7.10727 125.689 6.86824C125.787 6.62585 125.835 6.27573 125.835 5.81788V2.94452H126.713V8.30745H125.928Z" fill="#646C73"/>
<path d="M127.964 10.3627V2.9445H128.764V3.64138C128.952 3.36869 129.165 3.16501 129.402 3.03035C129.639 2.89232 129.927 2.8233 130.265 2.8233C130.707 2.8233 131.097 2.94113 131.435 3.17679C131.773 3.41245 132.028 3.74574 132.2 4.17666C132.372 4.60421 132.458 5.07385 132.458 5.58557C132.458 6.13431 132.362 6.6292 132.171 7.07022C131.982 7.50787 131.706 7.84453 131.342 8.08018C130.981 8.31248 130.601 8.42862 130.202 8.42862C129.909 8.42862 129.646 8.36466 129.412 8.23673C129.181 8.1088 128.991 7.94721 128.842 7.75195V10.3627H127.964ZM128.759 5.65626C128.759 6.34641 128.894 6.85644 129.163 7.18636C129.433 7.51629 129.76 7.68125 130.143 7.68125C130.533 7.68125 130.866 7.51124 131.142 7.17121C131.422 6.82783 131.561 6.29759 131.561 5.58051C131.561 4.8971 131.425 4.38539 131.152 4.04536C130.882 3.70534 130.559 3.53533 130.182 3.53533C129.808 3.53533 129.477 3.71712 129.188 4.08071C128.902 4.44093 128.759 4.96612 128.759 5.65626Z" fill="#646C73"/>
<path d="M133.316 6.70663L134.184 6.56523C134.232 6.92546 134.367 7.20151 134.588 7.39341C134.812 7.5853 135.124 7.68125 135.524 7.68125C135.927 7.68125 136.226 7.59708 136.421 7.42876C136.616 7.25706 136.713 7.05675 136.713 6.82783C136.713 6.62247 136.627 6.46087 136.455 6.34304C136.335 6.26224 136.036 6.15956 135.558 6.035C134.915 5.86667 134.468 5.72191 134.218 5.60071C133.971 5.47615 133.782 5.30614 133.652 5.09068C133.526 4.87185 133.462 4.63115 133.462 4.36855C133.462 4.12953 133.514 3.90902 133.618 3.70703C133.725 3.50166 133.87 3.33165 134.052 3.19699C134.188 3.09263 134.374 3.0051 134.608 2.9344C134.845 2.86034 135.098 2.8233 135.368 2.8233C135.774 2.8233 136.13 2.8839 136.435 3.0051C136.744 3.12629 136.971 3.29125 137.118 3.49998C137.264 3.70534 137.365 3.9814 137.42 4.32816L136.562 4.44935C136.523 4.17329 136.409 3.95783 136.221 3.80297C136.036 3.64811 135.772 3.57068 135.431 3.57068C135.028 3.57068 134.741 3.63969 134.569 3.77772C134.396 3.91575 134.31 4.07735 134.31 4.26251C134.31 4.38034 134.346 4.48638 134.417 4.58065C134.489 4.67828 134.601 4.75907 134.754 4.82304C134.842 4.8567 135.1 4.93414 135.529 5.05533C136.149 5.22703 136.582 5.36842 136.825 5.47952C137.072 5.58725 137.266 5.74548 137.405 5.9542C137.545 6.16293 137.615 6.42216 137.615 6.73188C137.615 7.03487 137.529 7.32103 137.357 7.59035C137.188 7.85631 136.942 8.06335 136.621 8.21148C136.299 8.35624 135.935 8.42862 135.529 8.42862C134.856 8.42862 134.343 8.28386 133.989 7.99434C133.638 7.70481 133.413 7.27558 133.316 6.70663Z" fill="#646C73"/>
<path d="M24.062 16.3921L24.5925 16.3167C24.6067 16.6685 24.6703 16.9093 24.7835 17.0392C24.8967 17.169 25.0533 17.2339 25.2534 17.2339C25.401 17.2339 25.5283 17.1994 25.6354 17.1303C25.7425 17.0591 25.8163 16.9638 25.8567 16.8444C25.8971 16.723 25.9173 16.5303 25.9173 16.2665V13.0941H26.5055V16.2319C26.5055 16.6172 26.46 16.9156 26.3691 17.1271C26.2801 17.3386 26.1376 17.4998 25.9416 17.6108C25.7476 17.7218 25.5192 17.7773 25.2564 17.7773C24.8664 17.7773 24.5673 17.6611 24.3591 17.4286C24.1529 17.1962 24.0539 16.8507 24.062 16.3921Z" fill="#646C73"/>
<path d="M29.7209 16.6246L30.2847 16.6968C30.1958 17.0381 30.0311 17.303 29.7906 17.4915C29.5501 17.6799 29.2429 17.7742 28.869 17.7742C28.3981 17.7742 28.0242 17.6244 27.7473 17.325C27.4724 17.0235 27.335 16.6015 27.335 16.0592C27.335 15.498 27.4744 15.0625 27.7533 14.7525C28.0322 14.4426 28.394 14.2877 28.8387 14.2877C29.2691 14.2877 29.6208 14.4395 29.8937 14.7431C30.1665 15.0467 30.3029 15.4739 30.3029 16.0246C30.3029 16.0581 30.3019 16.1084 30.2999 16.1754H27.8988C27.9191 16.5418 28.0191 16.8224 28.199 17.0172C28.3789 17.2119 28.6032 17.3093 28.872 17.3093C29.0721 17.3093 29.2429 17.2548 29.3843 17.146C29.5258 17.0371 29.638 16.8633 29.7209 16.6246ZM27.9292 15.7105H29.7269C29.7027 15.4299 29.634 15.2195 29.5208 15.0792C29.347 14.8614 29.1216 14.7525 28.8447 14.7525C28.5941 14.7525 28.3829 14.8394 28.2111 15.0132C28.0413 15.187 27.9474 15.4195 27.9292 15.7105Z" fill="#646C73"/>
<path d="M30.9699 13.7506V13.0941H31.5156V13.7506H30.9699ZM30.2787 18.9928L30.3818 18.5123C30.4909 18.5416 30.5768 18.5563 30.6394 18.5563C30.7506 18.5563 30.8335 18.5175 30.888 18.44C30.9426 18.3647 30.9699 18.1741 30.9699 17.8684V14.3631H31.5156V17.8809C31.5156 18.2914 31.4641 18.5772 31.361 18.7384C31.2296 18.9478 31.0113 19.0525 30.7061 19.0525C30.5586 19.0525 30.4161 19.0326 30.2787 18.9928Z" fill="#646C73"/>
<path d="M34.4654 17.6988V17.2088C34.2148 17.5857 33.8742 17.7742 33.4437 17.7742C33.2537 17.7742 33.0759 17.7365 32.9101 17.6611C32.7464 17.5857 32.6242 17.4915 32.5433 17.3784C32.4645 17.2632 32.4089 17.1229 32.3766 16.9575C32.3543 16.8465 32.3432 16.6706 32.3432 16.4298V14.3631H32.8889V16.2131C32.8889 16.5083 32.9 16.7073 32.9223 16.8099C32.9566 16.9585 33.0294 17.0758 33.1406 17.1617C33.2517 17.2454 33.3891 17.2873 33.5529 17.2873C33.7166 17.2873 33.8702 17.2444 34.0137 17.1585C34.1572 17.0706 34.2582 16.9523 34.3168 16.8036C34.3775 16.6528 34.4078 16.4351 34.4078 16.1503V14.3631H34.9535V17.6988H34.4654Z" fill="#646C73"/>
<path d="M4.69051 5.28655L7.88925 3.3674C8.64391 2.91427 8.90118 1.91916 8.46382 1.13728C8.02646 0.355408 7.06598 0.0888602 6.31132 0.541992L0.788574 3.85607L4.69051 5.28655Z" fill="#DD4335"/>
<path d="M7.10067 10.2088C7.64094 10.2088 8.17263 9.91561 8.4642 9.3914C8.90156 8.60952 8.64429 7.61441 7.88963 7.16128L2.35831 3.85608C1.60365 3.40295 0.643175 3.6695 0.205815 4.45137C-0.231545 5.23324 0.0257254 6.22836 0.780386 6.68149L6.31171 9.98669C6.5604 10.1377 6.83482 10.1999 7.10067 10.1999V10.2088Z" fill="#4779BD"/>
<path d="M12.606 10.2088C12.8718 10.2088 13.1462 10.1377 13.3949 9.99558L18.9263 6.69038L15.0672 5.22437L11.817 7.17017C11.0623 7.6233 10.8051 8.61841 11.2424 9.40029C11.534 9.9245 12.0657 10.2177 12.606 10.2177V10.2088Z" fill="#F0B61A"/>
<path d="M18.1376 6.90361C18.6778 6.90361 19.2095 6.61041 19.5011 6.08619C19.9385 5.30432 19.6812 4.30921 18.9265 3.85607L13.3866 0.541992C12.632 0.0888602 11.6715 0.355408 11.2341 1.13728C10.7968 1.91916 11.054 2.91427 11.8087 3.3674L17.34 6.6726C17.5887 6.82365 17.8631 6.88584 18.129 6.88584L18.1376 6.90361Z" fill="#1A9756"/>
</g>
<defs>
<clipPath id="clip0_533_583">
<rect width="138" height="20" fill="white"/>
</clipPath>
</defs>
</svg>
