<svg width="117" height="19" viewBox="0 0 117 19" fill="none" xmlns="http://www.w3.org/2000/svg">
<g clip-path="url(#clip0_533_657)">
<path d="M61.2286 9.30573V4.29346H56.958V5.58538H59.7792V9.30573H61.2286Z" fill="#666464"/>
<path d="M44.1266 10.4811C42.7452 10.4811 41.6167 11.6176 41.6167 13.0164C41.6167 14.4151 42.7354 15.5516 44.1266 15.5516C45.5177 15.5516 46.6364 14.4151 46.6364 13.0164C46.6364 11.6176 45.5177 10.4811 44.1266 10.4811ZM44.1266 14.1723C43.4942 14.1723 42.9884 13.6575 42.9884 13.0164C42.9884 12.3753 43.4942 11.8604 44.1266 11.8604C44.7589 11.8604 45.2647 12.3753 45.2647 13.0164C45.2647 13.6575 44.7589 14.1723 44.1266 14.1723Z" fill="#666464"/>
<path d="M46.6462 4.13806H45.1772V9.87886H46.6462V7.52814H47.9984V6.20708H46.6462V4.13806Z" fill="#666464"/>
<path d="M53.1835 8.51892H51.7146V10.6171H48.4849V11.9284H56.423V10.6171H53.1835V8.51892Z" fill="#666464"/>
<path d="M34.4081 13.4535H32.9392V11.3553H29.6997V10.0439H37.6476V11.3553H34.4081V13.4535Z" fill="#666464"/>
<path d="M50.2068 8.98518L52.454 6.56646L54.7012 8.98518L55.7713 7.97495L53.5533 5.65338H55.4697V4.29346H49.4383V5.65338H51.3547L49.1367 7.97495L50.2068 8.98518Z" fill="#666464"/>
<path d="M31.4314 8.98518L33.6786 6.56646L35.9258 8.98518L36.9862 7.97495L34.7779 5.65338H36.6943V4.29346H30.6629V5.65338H32.5696L30.3613 7.97495L31.4314 8.98518Z" fill="#666464"/>
<path d="M103.926 10.112H105.307V4.13806H103.926V6.06137H102.719V7.37272H103.926V10.112Z" fill="#666464"/>
<path d="M96.5223 4.13806H95.0825V10.1217H96.5223V4.13806Z" fill="#666464"/>
<path d="M107.593 4.13806H106.153V10.1217H107.593V4.13806Z" fill="#666464"/>
<path d="M43.9323 8.42179L42.0742 5.58539H43.6307V4.25462H41.9575V3.30267H40.3815V4.25462H38.7083V5.58539H40.2648C39.5449 6.68304 38.4067 8.42179 38.4067 8.42179L39.6033 9.23775L41.1793 6.73161L42.7552 9.23775L43.9518 8.42179H43.9323Z" fill="#666464"/>
<path d="M85.0527 5.64368H83.5156V6.89675H85.0527V7.90698H83.5156V9.16005H85.0527V10.3937H86.5313V4.13806H85.0527V5.64368Z" fill="#666464"/>
<path d="M62.8341 10.4811C61.4527 10.4811 60.3242 11.6176 60.3242 13.0164C60.3242 14.4151 61.4527 15.5516 62.8341 15.5516C64.2155 15.5516 65.3439 14.4151 65.3439 13.0164C65.3439 11.6176 64.2252 10.4811 62.8341 10.4811ZM62.8341 14.1723C62.2017 14.1723 61.6959 13.6575 61.6959 13.0164C61.6959 12.3753 62.2115 11.8604 62.8341 11.8604C63.4567 11.8604 63.9723 12.3753 63.9723 13.0164C63.9723 13.6575 63.4664 14.1723 62.8341 14.1723Z" fill="#666464"/>
<path d="M93.1369 8.35381L90.3741 4.13806L87.6016 8.35381L88.7981 9.16976L90.3741 6.67334L91.9403 9.16976L93.1369 8.35381Z" fill="#666464"/>
<path d="M93.1955 11.0639H91.7363V15.0465H96.6198V13.7352H93.1955V11.0639Z" fill="#666464"/>
<path d="M115.521 4.13806V6.90647H114.101V8.21782H115.521V12.521H117V4.13806H115.521Z" fill="#666464"/>
<path d="M104.266 11.0639H102.807V15.0465H107.68V13.7352H104.266V11.0639Z" fill="#666464"/>
<path d="M110.745 8.19836H113.401V6.92587H110.745V5.60481H113.508V4.29346H109.295V10.9182H113.615V9.58742H110.745V8.19836Z" fill="#666464"/>
<path d="M100.258 4.13806L97.5635 8.34409L98.76 9.16005L100.258 6.67334L101.747 9.16005L102.943 8.34409L100.258 4.13806Z" fill="#666464"/>
<path d="M71.4629 5.62423V4.29346H66.9783V5.62423H68.3305L66.5308 8.45092L67.7273 9.26687L69.2157 6.78016L70.7139 9.26687L71.9104 8.45092L70.101 5.62423H71.4629Z" fill="#666464"/>
<path d="M72.8537 6.06137H71.5015V7.37272H72.8537V12.521H74.2351V4.13806H72.8537V6.06137Z" fill="#666464"/>
<path d="M63.8749 5.12886H62.3281V6.38193H63.8749V7.39215H62.3281V8.64522H63.8749V9.87886H65.3438V4.13806H63.8749V5.12886Z" fill="#666464"/>
<path d="M76.5213 4.13806H75.0815V12.521H76.5213V4.13806Z" fill="#666464"/>
<path d="M81.6382 12.7735H84.9457V15.2311H86.4147V11.4525H81.6382V12.7735Z" fill="#666464"/>
<path d="M82.8349 8.04295C82.8349 6.79959 81.8329 5.78937 80.6071 5.78937C79.3814 5.78937 78.3794 6.79959 78.3794 8.04295C78.3794 9.2863 79.3717 10.2965 80.6071 10.2965C81.8426 10.2965 82.8349 9.2863 82.8349 8.04295ZM80.6071 8.92689C80.1305 8.92689 79.7413 8.52863 79.7413 8.04295C79.7413 7.55726 80.1305 7.159 80.6071 7.159C81.0838 7.159 81.4729 7.54755 81.4729 8.04295C81.4729 8.53834 81.0838 8.92689 80.6071 8.92689Z" fill="#666464"/>
<path d="M83.0588 4.24491H81.3466V3.29297H79.7707V4.24491H78.0391V5.53683H83.0588V4.24491Z" fill="#666464"/>
<path d="M20.4486 9.23773L19.2812 8.34407L21.3728 5.89622H19.7871V4.42945H24.2231V5.89622H22.6374L24.2231 7.77097V6.39162H25.6434V3.77863H26.9762V12.8804H25.6434V7.85839H24.301L24.7387 8.3635L23.5713 9.24745L22.0148 7.30471L20.4486 9.24745V9.23773ZM27.6182 12.8707V3.76892H28.9802V12.8707H27.6182Z" fill="#666464"/>
<path d="M4.71809 2.99182L1.12842 9.23773L4.71809 16.0665L12.0434 16.3967L16.1292 9.5L12.199 3.05982L4.71809 2.99182Z" fill="white"/>
<path d="M4.33892 15.9985C4.72804 15.9985 5.65221 16.3773 6.65421 16.9601C7.81185 17.6401 8.67766 18.3589 8.68738 18.6406C8.68738 18.66 8.68738 18.6794 8.67765 18.6989C8.64847 18.7377 8.5901 18.7669 8.50255 18.7669C8.11342 18.7669 7.18925 18.388 6.18726 17.8052C5.01988 17.1253 4.15408 16.3967 4.15408 16.1247C4.15408 16.1053 4.15408 16.0859 4.16381 16.0762C4.193 16.0373 4.25136 16.0082 4.33892 16.0082M1.81934 15.5516L7.08224 18.6212C7.50055 18.8737 8.05506 19.0097 8.60956 19.0097C9.11542 19.0097 9.61155 18.9029 9.99095 18.6892L10.3898 18.456C10.5746 18.32 10.7206 18.184 10.847 18.0481C11.0513 17.8344 11.2459 17.4847 11.2459 17.4847L12.1992 15.8236H3.08399C3.08399 15.8236 2.68514 15.8236 2.40302 15.7556C2.22792 15.7168 2.03335 15.6488 1.81934 15.5613" fill="url(#paint0_linear_533_657)"/>
<path d="M11.9947 16.6007C11.9947 16.319 12.8606 15.6002 14.0279 14.9202C15.0396 14.3277 15.9638 13.9586 16.3432 13.9586C16.4308 13.9586 16.4989 13.978 16.5183 14.0266C16.5183 14.0363 16.528 14.0557 16.528 14.0752C16.528 14.3471 15.6622 15.0757 14.4949 15.7556C13.4832 16.3482 12.559 16.7173 12.1796 16.7173C12.092 16.7173 12.0239 16.6979 12.0045 16.6493C12.0045 16.6299 11.9947 16.6201 11.9947 16.6007ZM15.7984 9.5L12.1893 15.8139L11.236 17.4749C11.236 17.4749 11.0414 17.8246 10.8371 18.0383C10.7106 18.1743 10.555 18.3103 10.3799 18.4463L15.6428 15.3768C16.46 14.93 17.1409 13.7935 17.1506 12.8609V12.4044C17.1215 12.1713 17.0826 11.977 17.0339 11.8021C16.9464 11.5204 16.7518 11.1708 16.7518 11.1708L15.7984 9.50971" fill="url(#paint1_linear_533_657)"/>
<path d="M15.9543 7.45041C15.9543 5.99336 16.1683 4.818 16.4309 4.818C16.6936 4.818 16.9076 5.99336 16.9076 7.45041C16.9076 8.90747 16.6936 10.0828 16.4309 10.0828C16.1683 10.0828 15.9543 8.90747 15.9543 7.45041ZM14.0962 3.1861H12.1992L16.752 11.161C16.752 11.161 16.9465 11.5107 17.0341 11.7924C17.0827 11.9673 17.1314 12.1713 17.1508 12.3947V6.25563C17.1703 5.32311 16.5477 4.15747 15.75 3.68149L15.3511 3.44837C15.1468 3.36094 14.9523 3.29295 14.7674 3.25409C14.4853 3.1861 14.0865 3.1861 14.0865 3.1861" fill="url(#paint2_linear_533_657)"/>
<path d="M0.272455 11.5496C0.272455 10.0925 0.486474 8.91716 0.749133 8.91716C1.01179 8.91716 1.22581 10.0925 1.22581 11.5496C1.22581 13.0066 1.01179 14.182 0.749133 14.182C0.486474 14.182 0.272455 13.0066 0.272455 11.5496ZM0.0292524 6.59558V12.7346C0.00979619 13.6672 0.632395 14.8328 1.4301 15.3185L1.82895 15.5516C2.03324 15.639 2.22781 15.707 2.41264 15.7459C2.70448 15.8139 3.09361 15.8139 3.09361 15.8139H4.99059L0.428105 7.83893C0.428105 7.83893 0.233543 7.48924 0.14599 7.20754C0.0973492 7.0327 0.0487086 6.82871 0.0292524 6.60529" fill="url(#paint3_linear_533_657)"/>
<path d="M8.66791 0.233129C9.05704 0.233129 9.98121 0.611963 10.9832 1.19479C12.1506 1.87474 13.0164 2.59356 13.0164 2.87526C13.0164 2.89468 13.0164 2.91411 13.0066 2.92382C12.9775 2.97239 12.9191 2.99182 12.8315 2.99182C12.4424 2.99182 11.5182 2.61299 10.5163 2.03016C9.34888 1.3502 8.47335 0.621677 8.48308 0.349693C8.48308 0.330266 8.48308 0.310838 8.49281 0.301125C8.52199 0.26227 8.58036 0.233129 8.66791 0.233129ZM8.57063 0C8.06477 0 7.56863 0.106851 7.18924 0.320552L6.79039 0.553681C6.60555 0.689673 6.45963 0.825665 6.33316 0.961656C6.12887 1.17536 5.93431 1.52505 5.93431 1.52505L4.98096 3.18609H14.0865C14.0865 3.18609 14.4853 3.18609 14.7674 3.25409C14.9425 3.29294 15.1371 3.36094 15.3511 3.44836L10.0979 0.388548C9.68936 0.126278 9.12513 0 8.58036 0" fill="url(#paint4_linear_533_657)"/>
<path d="M4.99063 2.2827C5.07819 2.2827 5.13656 2.30213 5.16574 2.35069C5.16574 2.37012 5.17547 2.37984 5.17547 2.39926C5.17547 2.68096 4.30967 3.39977 3.14229 4.07973C2.13057 4.67227 1.2064 5.04139 0.827002 5.04139C0.739449 5.04139 0.671352 5.02196 0.651896 4.97339C0.651896 4.95397 0.642168 4.94425 0.642168 4.92483C0.642168 4.64313 1.50797 3.92431 2.67534 3.24435C3.68707 2.65182 4.60151 2.2827 4.99063 2.2827ZM6.79033 0.553659L1.53715 3.62319C0.719993 4.07002 0.039025 5.19681 0.0292969 6.13904V6.59558C0.0584812 6.819 0.0973937 7.02298 0.146034 7.19783C0.233587 7.47953 0.428149 7.82922 0.428149 7.82922L1.3815 9.49026L4.99063 3.17636L5.94399 1.51532C5.94399 1.51532 6.13855 1.16562 6.34284 0.951921C6.46931 0.815929 6.62496 0.679937 6.80006 0.543945" fill="url(#paint5_linear_533_657)"/>
<mask id="mask0_533_657" style="mask-type:luminance" maskUnits="userSpaceOnUse" x="0" y="0" width="18" height="19">
<path d="M15.7499 3.68149L10.0978 0.388546C9.30987 -0.0971394 7.99658 -0.12628 7.18914 0.32055L1.53711 3.62321C0.719948 4.07004 0.0389805 5.19683 0.0292524 6.13906V12.7347C0.00979619 13.6672 0.632395 14.8328 1.4301 15.3185L7.08213 18.6114C7.87011 19.0971 9.18341 19.1263 9.99084 18.6794L15.6429 15.3768C16.46 14.93 17.141 13.7935 17.1507 12.8609V6.26533C17.1702 5.33282 16.5476 4.16718 15.7499 3.6912" fill="white"/>
</mask>
<g mask="url(#mask0_533_657)">
<path d="M1.38144 9.50001C1.38144 9.50001 0.321081 5.22598 3.01577 2.72956L4.35825 1.94275C4.35825 1.94275 0.749118 4.20604 1.38144 9.50001Z" fill="white"/>
<path d="M4.98079 15.8042C4.98079 15.8042 0.797705 14.5997 0 10.9959V9.43201C0 9.43201 0.136193 13.7157 4.98079 15.8139V15.8042Z" fill="white"/>
<path d="M12.1993 15.8042C12.1993 15.8042 9.07657 18.864 5.58418 17.7567L4.2417 16.9796C4.2417 16.9796 7.97729 19 12.1993 15.8042Z" fill="white"/>
<path d="M15.7986 9.5C15.7986 9.5 16.8589 13.774 14.1643 16.2705L12.8218 17.0573C12.8218 17.0573 16.4212 14.794 15.7986 9.50971V9.5Z" fill="white"/>
<path d="M12.1992 3.18611C12.1992 3.18611 16.392 4.3906 17.18 7.99439V9.55829C17.18 9.55829 17.0438 5.27455 12.1992 3.17639V3.18611Z" fill="white"/>
<path d="M4.98096 3.1861C4.98096 3.1861 8.11341 0.12628 11.5961 1.23364L12.9386 2.01074C12.9386 2.01074 9.20296 1.66893e-06 4.98096 3.1861Z" fill="white"/>
</g>
</g>
<defs>
<linearGradient id="paint0_linear_533_657" x1="14.0936" y1="16.9774" x2="19.0412" y2="14.2081" gradientUnits="userSpaceOnUse">
<stop stop-color="#0050A2"/>
<stop offset="0.25" stop-color="#0452A3"/>
<stop offset="0.55" stop-color="#1358A6"/>
<stop offset="0.87" stop-color="#2A62AB"/>
<stop offset="1" stop-color="#3668AE"/>
</linearGradient>
<linearGradient id="paint1_linear_533_657" x1="17.868" y1="1.08682" x2="17.7951" y2="6.97598" gradientUnits="userSpaceOnUse">
<stop stop-color="#DF033B"/>
<stop offset="0.22" stop-color="#DF093D"/>
<stop offset="0.52" stop-color="#E01A45"/>
<stop offset="0.85" stop-color="#E13651"/>
<stop offset="1" stop-color="#E24558"/>
</linearGradient>
<linearGradient id="paint2_linear_533_657" x1="-1.25999" y1="4.41678" x2="3.76061" y2="7.40459" gradientUnits="userSpaceOnUse">
<stop stop-color="#0050A2"/>
<stop offset="0.25" stop-color="#0452A3"/>
<stop offset="0.55" stop-color="#1358A6"/>
<stop offset="0.87" stop-color="#2A62AB"/>
<stop offset="1" stop-color="#3668AE"/>
</linearGradient>
<linearGradient id="paint3_linear_533_657" x1="17.3578" y1="26.6248" x2="12.4103" y2="23.6003" gradientUnits="userSpaceOnUse">
<stop stop-color="#DF033B"/>
<stop offset="0.22" stop-color="#DF093D"/>
<stop offset="0.52" stop-color="#E01A45"/>
<stop offset="0.85" stop-color="#E13651"/>
<stop offset="1" stop-color="#E24558"/>
</linearGradient>
<linearGradient id="paint4_linear_533_657" x1="13.5566" y1="0.454662" x2="18.6129" y2="-2.31427" gradientUnits="userSpaceOnUse">
<stop stop-color="#DF033B"/>
<stop offset="0.22" stop-color="#DF093D"/>
<stop offset="0.52" stop-color="#E01A45"/>
<stop offset="0.85" stop-color="#E13651"/>
<stop offset="1" stop-color="#E24558"/>
</linearGradient>
<linearGradient id="paint5_linear_533_657" x1="16.8151" y1="4.09914" x2="16.7421" y2="-1.71696" gradientUnits="userSpaceOnUse">
<stop stop-color="#0050A2"/>
<stop offset="0.25" stop-color="#0452A3"/>
<stop offset="0.55" stop-color="#1358A6"/>
<stop offset="0.87" stop-color="#2A62AB"/>
<stop offset="1" stop-color="#3668AE"/>
</linearGradient>
<clipPath id="clip0_533_657">
<rect width="117" height="19" fill="white"/>
</clipPath>
</defs>
</svg>
